<svg width="590" height="989" viewBox="0 0 590 989" fill="none" xmlns="http://www.w3.org/2000/svg">
<rect width="590" height="989" fill="#FCEBF1"/>
<g filter="url(#filter0_d_110_12499)">
<rect x="76" y="355" width="438" height="236" rx="20" fill="#FFCEDE"/>
<path d="M156.849 414.264C156.849 415.041 156.666 415.775 156.299 416.464C155.932 417.153 155.346 417.718 154.539 418.158C153.732 418.583 152.698 418.796 151.437 418.796H148.665V425H146.157V409.71H151.437C152.61 409.71 153.6 409.915 154.407 410.326C155.228 410.722 155.837 411.265 156.233 411.954C156.644 412.643 156.849 413.413 156.849 414.264ZM151.437 416.75C152.39 416.75 153.102 416.537 153.571 416.112C154.04 415.672 154.275 415.056 154.275 414.264C154.275 412.592 153.329 411.756 151.437 411.756H148.665V416.75H151.437ZM158.405 418.884C158.405 417.667 158.654 416.589 159.153 415.65C159.666 414.711 160.355 413.985 161.221 413.472C162.101 412.944 163.069 412.68 164.125 412.68C165.078 412.68 165.907 412.871 166.611 413.252C167.329 413.619 167.901 414.081 168.327 414.638V412.878H170.857V425H168.327V423.196C167.901 423.768 167.322 424.245 166.589 424.626C165.855 425.007 165.019 425.198 164.081 425.198C163.039 425.198 162.086 424.934 161.221 424.406C160.355 423.863 159.666 423.115 159.153 422.162C158.654 421.194 158.405 420.101 158.405 418.884ZM168.327 418.928C168.327 418.092 168.151 417.366 167.799 416.75C167.461 416.134 167.014 415.665 166.457 415.342C165.899 415.019 165.298 414.858 164.653 414.858C164.007 414.858 163.406 415.019 162.849 415.342C162.291 415.65 161.837 416.112 161.485 416.728C161.147 417.329 160.979 418.048 160.979 418.884C160.979 419.72 161.147 420.453 161.485 421.084C161.837 421.715 162.291 422.199 162.849 422.536C163.421 422.859 164.022 423.02 164.653 423.02C165.298 423.02 165.899 422.859 166.457 422.536C167.014 422.213 167.461 421.744 167.799 421.128C168.151 420.497 168.327 419.764 168.327 418.928ZM178.551 425.198C177.598 425.198 176.74 425.029 175.977 424.692C175.229 424.34 174.635 423.871 174.195 423.284C173.755 422.683 173.52 422.015 173.491 421.282H176.087C176.131 421.795 176.373 422.228 176.813 422.58C177.268 422.917 177.832 423.086 178.507 423.086C179.211 423.086 179.754 422.954 180.135 422.69C180.531 422.411 180.729 422.059 180.729 421.634C180.729 421.179 180.509 420.842 180.069 420.622C179.644 420.402 178.962 420.16 178.023 419.896C177.114 419.647 176.373 419.405 175.801 419.17C175.229 418.935 174.73 418.576 174.305 418.092C173.894 417.608 173.689 416.97 173.689 416.178C173.689 415.533 173.88 414.946 174.261 414.418C174.642 413.875 175.185 413.45 175.889 413.142C176.608 412.834 177.429 412.68 178.353 412.68C179.732 412.68 180.839 413.032 181.675 413.736C182.526 414.425 182.98 415.371 183.039 416.574H180.531C180.487 416.031 180.267 415.599 179.871 415.276C179.475 414.953 178.94 414.792 178.265 414.792C177.605 414.792 177.099 414.917 176.747 415.166C176.395 415.415 176.219 415.745 176.219 416.156C176.219 416.479 176.336 416.75 176.571 416.97C176.806 417.19 177.092 417.366 177.429 417.498C177.766 417.615 178.265 417.769 178.925 417.96C179.805 418.195 180.524 418.437 181.081 418.686C181.653 418.921 182.144 419.273 182.555 419.742C182.966 420.211 183.178 420.835 183.193 421.612C183.193 422.301 183.002 422.917 182.621 423.46C182.24 424.003 181.697 424.428 180.993 424.736C180.304 425.044 179.49 425.198 178.551 425.198ZM185.067 418.884C185.067 417.667 185.316 416.589 185.815 415.65C186.328 414.711 187.018 413.985 187.883 413.472C188.763 412.944 189.731 412.68 190.787 412.68C191.74 412.68 192.569 412.871 193.273 413.252C193.992 413.619 194.564 414.081 194.989 414.638V412.878H197.519V425H194.989V423.196C194.564 423.768 193.984 424.245 193.251 424.626C192.518 425.007 191.682 425.198 190.743 425.198C189.702 425.198 188.748 424.934 187.883 424.406C187.018 423.863 186.328 423.115 185.815 422.162C185.316 421.194 185.067 420.101 185.067 418.884ZM194.989 418.928C194.989 418.092 194.813 417.366 194.461 416.75C194.124 416.134 193.676 415.665 193.119 415.342C192.562 415.019 191.96 414.858 191.315 414.858C190.67 414.858 190.068 415.019 189.511 415.342C188.954 415.65 188.499 416.112 188.147 416.728C187.81 417.329 187.641 418.048 187.641 418.884C187.641 419.72 187.81 420.453 188.147 421.084C188.499 421.715 188.954 422.199 189.511 422.536C190.083 422.859 190.684 423.02 191.315 423.02C191.96 423.02 192.562 422.859 193.119 422.536C193.676 422.213 194.124 421.744 194.461 421.128C194.813 420.497 194.989 419.764 194.989 418.928ZM193.977 409.622L189.115 412.02V410.172L193.977 407.488V409.622ZM205.692 418.884C205.692 417.667 205.941 416.589 206.44 415.65C206.953 414.711 207.643 413.985 208.508 413.472C209.388 412.944 210.363 412.68 211.434 412.68C212.226 412.68 213.003 412.856 213.766 413.208C214.543 413.545 215.159 414 215.614 414.572V408.72H218.144V425H215.614V423.174C215.203 423.761 214.631 424.245 213.898 424.626C213.179 425.007 212.351 425.198 211.412 425.198C210.356 425.198 209.388 424.934 208.508 424.406C207.643 423.863 206.953 423.115 206.44 422.162C205.941 421.194 205.692 420.101 205.692 418.884ZM215.614 418.928C215.614 418.092 215.438 417.366 215.086 416.75C214.749 416.134 214.301 415.665 213.744 415.342C213.187 415.019 212.585 414.858 211.94 414.858C211.295 414.858 210.693 415.019 210.136 415.342C209.579 415.65 209.124 416.112 208.772 416.728C208.435 417.329 208.266 418.048 208.266 418.884C208.266 419.72 208.435 420.453 208.772 421.084C209.124 421.715 209.579 422.199 210.136 422.536C210.708 422.859 211.309 423.02 211.94 423.02C212.585 423.02 213.187 422.859 213.744 422.536C214.301 422.213 214.749 421.744 215.086 421.128C215.438 420.497 215.614 419.764 215.614 418.928ZM232.548 418.642C232.548 419.097 232.519 419.507 232.46 419.874H223.198C223.271 420.842 223.631 421.619 224.276 422.206C224.921 422.793 225.713 423.086 226.652 423.086C228.001 423.086 228.955 422.521 229.512 421.392H232.218C231.851 422.507 231.184 423.423 230.216 424.142C229.263 424.846 228.075 425.198 226.652 425.198C225.493 425.198 224.452 424.941 223.528 424.428C222.619 423.9 221.9 423.167 221.372 422.228C220.859 421.275 220.602 420.175 220.602 418.928C220.602 417.681 220.851 416.589 221.35 415.65C221.863 414.697 222.575 413.963 223.484 413.45C224.408 412.937 225.464 412.68 226.652 412.68C227.796 412.68 228.815 412.929 229.71 413.428C230.605 413.927 231.301 414.631 231.8 415.54C232.299 416.435 232.548 417.469 232.548 418.642ZM229.93 417.85C229.915 416.926 229.585 416.185 228.94 415.628C228.295 415.071 227.495 414.792 226.542 414.792C225.677 414.792 224.936 415.071 224.32 415.628C223.704 416.171 223.337 416.911 223.22 417.85H229.93ZM243.239 414.66C243.664 414.103 244.244 413.633 244.977 413.252C245.71 412.871 246.539 412.68 247.463 412.68C248.519 412.68 249.48 412.944 250.345 413.472C251.225 413.985 251.914 414.711 252.413 415.65C252.912 416.589 253.161 417.667 253.161 418.884C253.161 420.101 252.912 421.194 252.413 422.162C251.914 423.115 251.225 423.863 250.345 424.406C249.48 424.934 248.519 425.198 247.463 425.198C246.539 425.198 245.718 425.015 244.999 424.648C244.28 424.267 243.694 423.797 243.239 423.24V430.764H240.731V412.878H243.239V414.66ZM250.609 418.884C250.609 418.048 250.433 417.329 250.081 416.728C249.744 416.112 249.289 415.65 248.717 415.342C248.16 415.019 247.558 414.858 246.913 414.858C246.282 414.858 245.681 415.019 245.109 415.342C244.552 415.665 244.097 416.134 243.745 416.75C243.408 417.366 243.239 418.092 243.239 418.928C243.239 419.764 243.408 420.497 243.745 421.128C244.097 421.744 244.552 422.213 245.109 422.536C245.681 422.859 246.282 423.02 246.913 423.02C247.558 423.02 248.16 422.859 248.717 422.536C249.289 422.199 249.744 421.715 250.081 421.084C250.433 420.453 250.609 419.72 250.609 418.884ZM254.805 418.884C254.805 417.667 255.055 416.589 255.553 415.65C256.067 414.711 256.756 413.985 257.621 413.472C258.501 412.944 259.469 412.68 260.525 412.68C261.479 412.68 262.307 412.871 263.011 413.252C263.73 413.619 264.302 414.081 264.727 414.638V412.878H267.257V425H264.727V423.196C264.302 423.768 263.723 424.245 262.989 424.626C262.256 425.007 261.42 425.198 260.481 425.198C259.44 425.198 258.487 424.934 257.621 424.406C256.756 423.863 256.067 423.115 255.553 422.162C255.055 421.194 254.805 420.101 254.805 418.884ZM264.727 418.928C264.727 418.092 264.551 417.366 264.199 416.75C263.862 416.134 263.415 415.665 262.857 415.342C262.3 415.019 261.699 414.858 261.053 414.858C260.408 414.858 259.807 415.019 259.249 415.342C258.692 415.65 258.237 416.112 257.885 416.728C257.548 417.329 257.379 418.048 257.379 418.884C257.379 419.72 257.548 420.453 257.885 421.084C258.237 421.715 258.692 422.199 259.249 422.536C259.821 422.859 260.423 423.02 261.053 423.02C261.699 423.02 262.3 422.859 262.857 422.536C263.415 422.213 263.862 421.744 264.199 421.128C264.551 420.497 264.727 419.764 264.727 418.928ZM263.715 409.622L258.853 412.02V410.172L263.715 407.488V409.622ZM275.435 412.68C276.374 412.68 277.203 412.871 277.921 413.252C278.655 413.619 279.227 414.081 279.637 414.638V412.878H282.167V425.198C282.167 426.313 281.933 427.303 281.463 428.168C280.994 429.048 280.312 429.737 279.417 430.236C278.537 430.735 277.481 430.984 276.249 430.984C274.607 430.984 273.243 430.595 272.157 429.818C271.072 429.055 270.456 428.014 270.309 426.694H272.795C272.986 427.325 273.389 427.831 274.005 428.212C274.636 428.608 275.384 428.806 276.249 428.806C277.261 428.806 278.075 428.498 278.691 427.882C279.322 427.266 279.637 426.371 279.637 425.198V423.174C279.212 423.746 278.633 424.23 277.899 424.626C277.181 425.007 276.359 425.198 275.435 425.198C274.379 425.198 273.411 424.934 272.531 424.406C271.666 423.863 270.977 423.115 270.463 422.162C269.965 421.194 269.715 420.101 269.715 418.884C269.715 417.667 269.965 416.589 270.463 415.65C270.977 414.711 271.666 413.985 272.531 413.472C273.411 412.944 274.379 412.68 275.435 412.68ZM279.637 418.928C279.637 418.092 279.461 417.366 279.109 416.75C278.772 416.134 278.325 415.665 277.767 415.342C277.21 415.019 276.609 414.858 275.963 414.858C275.318 414.858 274.717 415.019 274.159 415.342C273.602 415.65 273.147 416.112 272.795 416.728C272.458 417.329 272.289 418.048 272.289 418.884C272.289 419.72 272.458 420.453 272.795 421.084C273.147 421.715 273.602 422.199 274.159 422.536C274.731 422.859 275.333 423.02 275.963 423.02C276.609 423.02 277.21 422.859 277.767 422.536C278.325 422.213 278.772 421.744 279.109 421.128C279.461 420.497 279.637 419.764 279.637 418.928ZM286.738 411.272C286.283 411.272 285.902 411.118 285.594 410.81C285.286 410.502 285.132 410.121 285.132 409.666C285.132 409.211 285.286 408.83 285.594 408.522C285.902 408.214 286.283 408.06 286.738 408.06C287.178 408.06 287.552 408.214 287.86 408.522C288.168 408.83 288.322 409.211 288.322 409.666C288.322 410.121 288.168 410.502 287.86 410.81C287.552 411.118 287.178 411.272 286.738 411.272ZM287.97 412.878V425H285.462V412.878H287.97ZM297.378 412.68C298.332 412.68 299.182 412.878 299.93 413.274C300.693 413.67 301.287 414.257 301.712 415.034C302.138 415.811 302.35 416.75 302.35 417.85V425H299.864V418.224C299.864 417.139 299.593 416.31 299.05 415.738C298.508 415.151 297.767 414.858 296.828 414.858C295.89 414.858 295.142 415.151 294.584 415.738C294.042 416.31 293.77 417.139 293.77 418.224V425H291.262V412.878H293.77V414.264C294.181 413.765 294.702 413.377 295.332 413.098C295.978 412.819 296.66 412.68 297.378 412.68ZM304.713 418.884C304.713 417.667 304.963 416.589 305.461 415.65C305.975 414.711 306.664 413.985 307.529 413.472C308.409 412.944 309.377 412.68 310.433 412.68C311.387 412.68 312.215 412.871 312.919 413.252C313.638 413.619 314.21 414.081 314.635 414.638V412.878H317.165V425H314.635V423.196C314.21 423.768 313.631 424.245 312.897 424.626C312.164 425.007 311.328 425.198 310.389 425.198C309.348 425.198 308.395 424.934 307.529 424.406C306.664 423.863 305.975 423.115 305.461 422.162C304.963 421.194 304.713 420.101 304.713 418.884ZM314.635 418.928C314.635 418.092 314.459 417.366 314.107 416.75C313.77 416.134 313.323 415.665 312.765 415.342C312.208 415.019 311.607 414.858 310.961 414.858C310.316 414.858 309.715 415.019 309.157 415.342C308.6 415.65 308.145 416.112 307.793 416.728C307.456 417.329 307.287 418.048 307.287 418.884C307.287 419.72 307.456 420.453 307.793 421.084C308.145 421.715 308.6 422.199 309.157 422.536C309.729 422.859 310.331 423.02 310.961 423.02C311.607 423.02 312.208 422.859 312.765 422.536C313.323 422.213 313.77 421.744 314.107 421.128C314.459 420.497 314.635 419.764 314.635 418.928ZM329.1 414.924V421.634C329.1 422.089 329.203 422.419 329.408 422.624C329.628 422.815 329.995 422.91 330.508 422.91H332.048V425H330.068C328.939 425 328.074 424.736 327.472 424.208C326.871 423.68 326.57 422.822 326.57 421.634V414.924H325.14V412.878H326.57V409.864H329.1V412.878H332.048V414.924H329.1ZM339.618 425.198C338.474 425.198 337.44 424.941 336.516 424.428C335.592 423.9 334.866 423.167 334.338 422.228C333.81 421.275 333.546 420.175 333.546 418.928C333.546 417.696 333.817 416.603 334.36 415.65C334.903 414.697 335.643 413.963 336.582 413.45C337.521 412.937 338.569 412.68 339.728 412.68C340.887 412.68 341.935 412.937 342.874 413.45C343.813 413.963 344.553 414.697 345.096 415.65C345.639 416.603 345.91 417.696 345.91 418.928C345.91 420.16 345.631 421.253 345.074 422.206C344.517 423.159 343.754 423.9 342.786 424.428C341.833 424.941 340.777 425.198 339.618 425.198ZM339.618 423.02C340.263 423.02 340.865 422.866 341.422 422.558C341.994 422.25 342.456 421.788 342.808 421.172C343.16 420.556 343.336 419.808 343.336 418.928C343.336 418.048 343.167 417.307 342.83 416.706C342.493 416.09 342.045 415.628 341.488 415.32C340.931 415.012 340.329 414.858 339.684 414.858C339.039 414.858 338.437 415.012 337.88 415.32C337.337 415.628 336.905 416.09 336.582 416.706C336.259 417.307 336.098 418.048 336.098 418.928C336.098 420.233 336.428 421.245 337.088 421.964C337.763 422.668 338.606 423.02 339.618 423.02ZM347.553 418.928C347.553 417.681 347.803 416.589 348.301 415.65C348.815 414.697 349.519 413.963 350.413 413.45C351.308 412.937 352.335 412.68 353.493 412.68C354.96 412.68 356.17 413.032 357.123 413.736C358.091 414.425 358.744 415.415 359.081 416.706H356.375C356.155 416.105 355.803 415.635 355.319 415.298C354.835 414.961 354.227 414.792 353.493 414.792C352.467 414.792 351.645 415.159 351.029 415.892C350.428 416.611 350.127 417.623 350.127 418.928C350.127 420.233 350.428 421.253 351.029 421.986C351.645 422.719 352.467 423.086 353.493 423.086C354.945 423.086 355.906 422.448 356.375 421.172H359.081C358.729 422.404 358.069 423.387 357.101 424.12C356.133 424.839 354.931 425.198 353.493 425.198C352.335 425.198 351.308 424.941 350.413 424.428C349.519 423.9 348.815 423.167 348.301 422.228C347.803 421.275 347.553 420.175 347.553 418.928ZM360.745 418.884C360.745 417.667 360.994 416.589 361.493 415.65C362.006 414.711 362.695 413.985 363.561 413.472C364.441 412.944 365.409 412.68 366.465 412.68C367.418 412.68 368.247 412.871 368.951 413.252C369.669 413.619 370.241 414.081 370.667 414.638V412.878H373.197V425H370.667V423.196C370.241 423.768 369.662 424.245 368.929 424.626C368.195 425.007 367.359 425.198 366.421 425.198C365.379 425.198 364.426 424.934 363.561 424.406C362.695 423.863 362.006 423.115 361.493 422.162C360.994 421.194 360.745 420.101 360.745 418.884ZM370.667 418.928C370.667 418.092 370.491 417.366 370.139 416.75C369.801 416.134 369.354 415.665 368.797 415.342C368.239 415.019 367.638 414.858 366.993 414.858C366.347 414.858 365.746 415.019 365.189 415.342C364.631 415.65 364.177 416.112 363.825 416.728C363.487 417.329 363.319 418.048 363.319 418.884C363.319 419.72 363.487 420.453 363.825 421.084C364.177 421.715 364.631 422.199 365.189 422.536C365.761 422.859 366.362 423.02 366.993 423.02C367.638 423.02 368.239 422.859 368.797 422.536C369.354 422.213 369.801 421.744 370.139 421.128C370.491 420.497 370.667 419.764 370.667 418.928ZM382.607 412.68C383.56 412.68 384.411 412.878 385.159 413.274C385.921 413.67 386.515 414.257 386.941 415.034C387.366 415.811 387.579 416.75 387.579 417.85V425H385.093V418.224C385.093 417.139 384.821 416.31 384.279 415.738C383.736 415.151 382.995 414.858 382.057 414.858C381.118 414.858 380.37 415.151 379.813 415.738C379.27 416.31 378.999 417.139 378.999 418.224V425H376.491V412.878H378.999V414.264C379.409 413.765 379.93 413.377 380.561 413.098C381.206 412.819 381.888 412.68 382.607 412.68ZM389.942 418.884C389.942 417.667 390.191 416.589 390.69 415.65C391.203 414.711 391.893 413.985 392.758 413.472C393.638 412.944 394.613 412.68 395.684 412.68C396.476 412.68 397.253 412.856 398.016 413.208C398.793 413.545 399.409 414 399.864 414.572V408.72H402.394V425H399.864V423.174C399.453 423.761 398.881 424.245 398.148 424.626C397.429 425.007 396.601 425.198 395.662 425.198C394.606 425.198 393.638 424.934 392.758 424.406C391.893 423.863 391.203 423.115 390.69 422.162C390.191 421.194 389.942 420.101 389.942 418.884ZM399.864 418.928C399.864 418.092 399.688 417.366 399.336 416.75C398.999 416.134 398.551 415.665 397.994 415.342C397.437 415.019 396.835 414.858 396.19 414.858C395.545 414.858 394.943 415.019 394.386 415.342C393.829 415.65 393.374 416.112 393.022 416.728C392.685 417.329 392.516 418.048 392.516 418.884C392.516 419.72 392.685 420.453 393.022 421.084C393.374 421.715 393.829 422.199 394.386 422.536C394.958 422.859 395.559 423.02 396.19 423.02C396.835 423.02 397.437 422.859 397.994 422.536C398.551 422.213 398.999 421.744 399.336 421.128C399.688 420.497 399.864 419.764 399.864 418.928ZM410.946 425.198C409.802 425.198 408.768 424.941 407.844 424.428C406.92 423.9 406.194 423.167 405.666 422.228C405.138 421.275 404.874 420.175 404.874 418.928C404.874 417.696 405.145 416.603 405.688 415.65C406.231 414.697 406.971 413.963 407.91 413.45C408.849 412.937 409.897 412.68 411.056 412.68C412.215 412.68 413.263 412.937 414.202 413.45C415.141 413.963 415.881 414.697 416.424 415.65C416.967 416.603 417.238 417.696 417.238 418.928C417.238 420.16 416.959 421.253 416.402 422.206C415.845 423.159 415.082 423.9 414.114 424.428C413.161 424.941 412.105 425.198 410.946 425.198ZM410.946 423.02C411.591 423.02 412.193 422.866 412.75 422.558C413.322 422.25 413.784 421.788 414.136 421.172C414.488 420.556 414.664 419.808 414.664 418.928C414.664 418.048 414.495 417.307 414.158 416.706C413.821 416.09 413.373 415.628 412.816 415.32C412.259 415.012 411.657 414.858 411.012 414.858C410.367 414.858 409.765 415.012 409.208 415.32C408.665 415.628 408.233 416.09 407.91 416.706C407.587 417.307 407.426 418.048 407.426 418.928C407.426 420.233 407.756 421.245 408.416 421.964C409.091 422.668 409.934 423.02 410.946 423.02ZM427.94 408.72V425H425.432V408.72H427.94ZM430.397 418.884C430.397 417.667 430.646 416.589 431.145 415.65C431.658 414.711 432.348 413.985 433.213 413.472C434.093 412.944 435.061 412.68 436.117 412.68C437.07 412.68 437.899 412.871 438.603 413.252C439.322 413.619 439.894 414.081 440.319 414.638V412.878H442.849V425H440.319V423.196C439.894 423.768 439.314 424.245 438.581 424.626C437.848 425.007 437.012 425.198 436.073 425.198C435.032 425.198 434.078 424.934 433.213 424.406C432.348 423.863 431.658 423.115 431.145 422.162C430.646 421.194 430.397 420.101 430.397 418.884ZM440.319 418.928C440.319 418.092 440.143 417.366 439.791 416.75C439.454 416.134 439.006 415.665 438.449 415.342C437.892 415.019 437.29 414.858 436.645 414.858C436 414.858 435.398 415.019 434.841 415.342C434.284 415.65 433.829 416.112 433.477 416.728C433.14 417.329 432.971 418.048 432.971 418.884C432.971 419.72 433.14 420.453 433.477 421.084C433.829 421.715 434.284 422.199 434.841 422.536C435.413 422.859 436.014 423.02 436.645 423.02C437.29 423.02 437.892 422.859 438.449 422.536C439.006 422.213 439.454 421.744 439.791 421.128C440.143 420.497 440.319 419.764 440.319 418.928ZM168.836 451.642C168.836 452.097 168.807 452.507 168.748 452.874H159.486C159.56 453.842 159.919 454.619 160.564 455.206C161.21 455.793 162.002 456.086 162.94 456.086C164.29 456.086 165.243 455.521 165.8 454.392H168.506C168.14 455.507 167.472 456.423 166.504 457.142C165.551 457.846 164.363 458.198 162.94 458.198C161.782 458.198 160.74 457.941 159.816 457.428C158.907 456.9 158.188 456.167 157.66 455.228C157.147 454.275 156.89 453.175 156.89 451.928C156.89 450.681 157.14 449.589 157.638 448.65C158.152 447.697 158.863 446.963 159.772 446.45C160.696 445.937 161.752 445.68 162.94 445.68C164.084 445.68 165.104 445.929 165.998 446.428C166.893 446.927 167.59 447.631 168.088 448.54C168.587 449.435 168.836 450.469 168.836 451.642ZM166.218 450.85C166.204 449.926 165.874 449.185 165.228 448.628C164.583 448.071 163.784 447.792 162.83 447.792C161.965 447.792 161.224 448.071 160.608 448.628C159.992 449.171 159.626 449.911 159.508 450.85H166.218ZM175.704 458.198C174.751 458.198 173.893 458.029 173.13 457.692C172.382 457.34 171.788 456.871 171.348 456.284C170.908 455.683 170.674 455.015 170.644 454.282H173.24C173.284 454.795 173.526 455.228 173.966 455.58C174.421 455.917 174.986 456.086 175.66 456.086C176.364 456.086 176.907 455.954 177.288 455.69C177.684 455.411 177.882 455.059 177.882 454.634C177.882 454.179 177.662 453.842 177.222 453.622C176.797 453.402 176.115 453.16 175.176 452.896C174.267 452.647 173.526 452.405 172.954 452.17C172.382 451.935 171.884 451.576 171.458 451.092C171.048 450.608 170.842 449.97 170.842 449.178C170.842 448.533 171.033 447.946 171.414 447.418C171.796 446.875 172.338 446.45 173.042 446.142C173.761 445.834 174.582 445.68 175.506 445.68C176.885 445.68 177.992 446.032 178.828 446.736C179.679 447.425 180.134 448.371 180.192 449.574H177.684C177.64 449.031 177.42 448.599 177.024 448.276C176.628 447.953 176.093 447.792 175.418 447.792C174.758 447.792 174.252 447.917 173.9 448.166C173.548 448.415 173.372 448.745 173.372 449.156C173.372 449.479 173.49 449.75 173.724 449.97C173.959 450.19 174.245 450.366 174.582 450.498C174.92 450.615 175.418 450.769 176.078 450.96C176.958 451.195 177.677 451.437 178.234 451.686C178.806 451.921 179.298 452.273 179.708 452.742C180.119 453.211 180.332 453.835 180.346 454.612C180.346 455.301 180.156 455.917 179.774 456.46C179.393 457.003 178.85 457.428 178.146 457.736C177.457 458.044 176.643 458.198 175.704 458.198ZM182.22 451.884C182.22 450.667 182.47 449.589 182.968 448.65C183.482 447.711 184.171 446.985 185.036 446.472C185.916 445.944 186.892 445.68 187.962 445.68C188.901 445.68 189.73 445.871 190.448 446.252C191.182 446.633 191.746 447.095 192.142 447.638V445.878H194.672V463.764H192.142V456.24C191.746 456.783 191.174 457.245 190.426 457.626C189.678 458.007 188.828 458.198 187.874 458.198C186.833 458.198 185.88 457.934 185.014 457.406C184.164 456.863 183.482 456.115 182.968 455.162C182.47 454.194 182.22 453.101 182.22 451.884ZM192.142 451.928C192.142 451.092 191.966 450.366 191.614 449.75C191.277 449.134 190.83 448.665 190.272 448.342C189.715 448.019 189.114 447.858 188.468 447.858C187.823 447.858 187.222 448.019 186.664 448.342C186.107 448.65 185.652 449.112 185.3 449.728C184.963 450.329 184.794 451.048 184.794 451.884C184.794 452.72 184.963 453.453 185.3 454.084C185.652 454.715 186.107 455.199 186.664 455.536C187.236 455.859 187.838 456.02 188.468 456.02C189.114 456.02 189.715 455.859 190.272 455.536C190.83 455.213 191.277 454.744 191.614 454.128C191.966 453.497 192.142 452.764 192.142 451.928ZM208.944 445.878V458H206.436V456.57C206.04 457.069 205.52 457.465 204.874 457.758C204.244 458.037 203.569 458.176 202.85 458.176C201.897 458.176 201.039 457.978 200.276 457.582C199.528 457.186 198.934 456.599 198.494 455.822C198.069 455.045 197.856 454.106 197.856 453.006V445.878H200.342V452.632C200.342 453.717 200.614 454.553 201.156 455.14C201.699 455.712 202.44 455.998 203.378 455.998C204.317 455.998 205.058 455.712 205.6 455.14C206.158 454.553 206.436 453.717 206.436 452.632V445.878H208.944ZM213.53 444.272C213.075 444.272 212.694 444.118 212.386 443.81C212.078 443.502 211.924 443.121 211.924 442.666C211.924 442.211 212.078 441.83 212.386 441.522C212.694 441.214 213.075 441.06 213.53 441.06C213.97 441.06 214.344 441.214 214.652 441.522C214.96 441.83 215.114 442.211 215.114 442.666C215.114 443.121 214.96 443.502 214.652 443.81C214.344 444.118 213.97 444.272 213.53 444.272ZM214.762 445.878V458H212.254V445.878H214.762ZM224.17 445.68C225.124 445.68 225.974 445.878 226.722 446.274C227.485 446.67 228.079 447.257 228.504 448.034C228.93 448.811 229.142 449.75 229.142 450.85V458H226.656V451.224C226.656 450.139 226.385 449.31 225.842 448.738C225.3 448.151 224.559 447.858 223.62 447.858C222.682 447.858 221.934 448.151 221.376 448.738C220.834 449.31 220.562 450.139 220.562 451.224V458H218.054V445.878H220.562V447.264C220.973 446.765 221.494 446.377 222.124 446.098C222.77 445.819 223.452 445.68 224.17 445.68ZM231.505 451.884C231.505 450.667 231.755 449.589 232.253 448.65C232.767 447.711 233.456 446.985 234.321 446.472C235.201 445.944 236.169 445.68 237.225 445.68C238.179 445.68 239.007 445.871 239.711 446.252C240.43 446.619 241.002 447.081 241.427 447.638V445.878H243.957V458H241.427V456.196C241.002 456.768 240.423 457.245 239.689 457.626C238.956 458.007 238.12 458.198 237.181 458.198C236.14 458.198 235.187 457.934 234.321 457.406C233.456 456.863 232.767 456.115 232.253 455.162C231.755 454.194 231.505 453.101 231.505 451.884ZM241.427 451.928C241.427 451.092 241.251 450.366 240.899 449.75C240.562 449.134 240.115 448.665 239.557 448.342C239 448.019 238.399 447.858 237.753 447.858C237.108 447.858 236.507 448.019 235.949 448.342C235.392 448.65 234.937 449.112 234.585 449.728C234.248 450.329 234.079 451.048 234.079 451.884C234.079 452.72 234.248 453.453 234.585 454.084C234.937 454.715 235.392 455.199 235.949 455.536C236.521 455.859 237.123 456.02 237.753 456.02C238.399 456.02 239 455.859 239.557 455.536C240.115 455.213 240.562 454.744 240.899 454.128C241.251 453.497 241.427 452.764 241.427 451.928ZM254.242 444.272C253.788 444.272 253.406 444.118 253.098 443.81C252.79 443.502 252.636 443.121 252.636 442.666C252.636 442.211 252.79 441.83 253.098 441.522C253.406 441.214 253.788 441.06 254.242 441.06C254.682 441.06 255.056 441.214 255.364 441.522C255.672 441.83 255.826 442.211 255.826 442.666C255.826 443.121 255.672 443.502 255.364 443.81C255.056 444.118 254.682 444.272 254.242 444.272ZM255.474 445.878V458H252.966V445.878H255.474ZM264.883 445.68C265.837 445.68 266.687 445.878 267.435 446.274C268.198 446.67 268.792 447.257 269.217 448.034C269.643 448.811 269.855 449.75 269.855 450.85V458H267.369V451.224C267.369 450.139 267.098 449.31 266.555 448.738C266.013 448.151 265.272 447.858 264.333 447.858C263.395 447.858 262.647 448.151 262.089 448.738C261.547 449.31 261.275 450.139 261.275 451.224V458H258.767V445.878H261.275V447.264C261.686 446.765 262.207 446.377 262.837 446.098C263.483 445.819 264.165 445.68 264.883 445.68ZM278.136 447.924H275.892V458H273.362V447.924H271.932V445.878H273.362V445.02C273.362 443.627 273.729 442.615 274.462 441.984C275.21 441.339 276.376 441.016 277.96 441.016V443.106C277.198 443.106 276.662 443.253 276.354 443.546C276.046 443.825 275.892 444.316 275.892 445.02V445.878H278.136V447.924ZM291.469 451.642C291.469 452.097 291.44 452.507 291.381 452.874H282.119C282.192 453.842 282.552 454.619 283.197 455.206C283.842 455.793 284.634 456.086 285.573 456.086C286.922 456.086 287.876 455.521 288.433 454.392H291.139C290.772 455.507 290.105 456.423 289.137 457.142C288.184 457.846 286.996 458.198 285.573 458.198C284.414 458.198 283.373 457.941 282.449 457.428C281.54 456.9 280.821 456.167 280.293 455.228C279.78 454.275 279.523 453.175 279.523 451.928C279.523 450.681 279.772 449.589 280.271 448.65C280.784 447.697 281.496 446.963 282.405 446.45C283.329 445.937 284.385 445.68 285.573 445.68C286.717 445.68 287.736 445.929 288.631 446.428C289.526 446.927 290.222 447.631 290.721 448.54C291.22 449.435 291.469 450.469 291.469 451.642ZM288.851 450.85C288.836 449.926 288.506 449.185 287.861 448.628C287.216 448.071 286.416 447.792 285.463 447.792C284.598 447.792 283.857 448.071 283.241 448.628C282.625 449.171 282.258 449.911 282.141 450.85H288.851ZM296.445 447.638C296.812 447.022 297.296 446.545 297.897 446.208C298.513 445.856 299.239 445.68 300.075 445.68V448.276H299.437C298.454 448.276 297.706 448.525 297.193 449.024C296.694 449.523 296.445 450.388 296.445 451.62V458H293.937V445.878H296.445V447.638ZM303.656 444.272C303.202 444.272 302.82 444.118 302.512 443.81C302.204 443.502 302.05 443.121 302.05 442.666C302.05 442.211 302.204 441.83 302.512 441.522C302.82 441.214 303.202 441.06 303.656 441.06C304.096 441.06 304.47 441.214 304.778 441.522C305.086 441.83 305.24 442.211 305.24 442.666C305.24 443.121 305.086 443.502 304.778 443.81C304.47 444.118 304.096 444.272 303.656 444.272ZM304.888 445.878V458H302.38V445.878H304.888ZM313.439 458.198C312.295 458.198 311.261 457.941 310.337 457.428C309.413 456.9 308.687 456.167 308.159 455.228C307.631 454.275 307.367 453.175 307.367 451.928C307.367 450.696 307.639 449.603 308.181 448.65C308.724 447.697 309.465 446.963 310.403 446.45C311.342 445.937 312.391 445.68 313.549 445.68C314.708 445.68 315.757 445.937 316.695 446.45C317.634 446.963 318.375 447.697 318.917 448.65C319.46 449.603 319.731 450.696 319.731 451.928C319.731 453.16 319.453 454.253 318.895 455.206C318.338 456.159 317.575 456.9 316.607 457.428C315.654 457.941 314.598 458.198 313.439 458.198ZM313.439 456.02C314.085 456.02 314.686 455.866 315.243 455.558C315.815 455.25 316.277 454.788 316.629 454.172C316.981 453.556 317.157 452.808 317.157 451.928C317.157 451.048 316.989 450.307 316.651 449.706C316.314 449.09 315.867 448.628 315.309 448.32C314.752 448.012 314.151 447.858 313.505 447.858C312.86 447.858 312.259 448.012 311.701 448.32C311.159 448.628 310.726 449.09 310.403 449.706C310.081 450.307 309.919 451.048 309.919 451.928C309.919 453.233 310.249 454.245 310.909 454.964C311.584 455.668 312.427 456.02 313.439 456.02ZM324.719 447.638C325.085 447.022 325.569 446.545 326.171 446.208C326.787 445.856 327.513 445.68 328.349 445.68V448.276H327.711C326.728 448.276 325.98 448.525 325.467 449.024C324.968 449.523 324.719 450.388 324.719 451.62V458H322.211V445.878H324.719V447.638ZM335.533 451.884C335.533 450.667 335.782 449.589 336.281 448.65C336.794 447.711 337.483 446.985 338.349 446.472C339.229 445.944 340.204 445.68 341.275 445.68C342.067 445.68 342.844 445.856 343.607 446.208C344.384 446.545 345 447 345.455 447.572V441.72H347.985V458H345.455V456.174C345.044 456.761 344.472 457.245 343.739 457.626C343.02 458.007 342.191 458.198 341.253 458.198C340.197 458.198 339.229 457.934 338.349 457.406C337.483 456.863 336.794 456.115 336.281 455.162C335.782 454.194 335.533 453.101 335.533 451.884ZM345.455 451.928C345.455 451.092 345.279 450.366 344.927 449.75C344.589 449.134 344.142 448.665 343.585 448.342C343.027 448.019 342.426 447.858 341.781 447.858C341.135 447.858 340.534 448.019 339.977 448.342C339.419 448.65 338.965 449.112 338.613 449.728C338.275 450.329 338.107 451.048 338.107 451.884C338.107 452.72 338.275 453.453 338.613 454.084C338.965 454.715 339.419 455.199 339.977 455.536C340.549 455.859 341.15 456.02 341.781 456.02C342.426 456.02 343.027 455.859 343.585 455.536C344.142 455.213 344.589 454.744 344.927 454.128C345.279 453.497 345.455 452.764 345.455 451.928ZM362.389 451.642C362.389 452.097 362.36 452.507 362.301 452.874H353.039C353.112 453.842 353.472 454.619 354.117 455.206C354.762 455.793 355.554 456.086 356.493 456.086C357.842 456.086 358.796 455.521 359.353 454.392H362.059C361.692 455.507 361.025 456.423 360.057 457.142C359.104 457.846 357.916 458.198 356.493 458.198C355.334 458.198 354.293 457.941 353.369 457.428C352.46 456.9 351.741 456.167 351.213 455.228C350.7 454.275 350.443 453.175 350.443 451.928C350.443 450.681 350.692 449.589 351.191 448.65C351.704 447.697 352.416 446.963 353.325 446.45C354.249 445.937 355.305 445.68 356.493 445.68C357.637 445.68 358.656 445.929 359.551 446.428C360.446 446.927 361.142 447.631 361.641 448.54C362.14 449.435 362.389 450.469 362.389 451.642ZM359.771 450.85C359.756 449.926 359.426 449.185 358.781 448.628C358.136 448.071 357.336 447.792 356.383 447.792C355.518 447.792 354.777 448.071 354.161 448.628C353.545 449.171 353.178 449.911 353.061 450.85H359.771ZM367.365 447.638C367.732 447.022 368.216 446.545 368.817 446.208C369.433 445.856 370.159 445.68 370.995 445.68V448.276H370.357C369.374 448.276 368.626 448.525 368.113 449.024C367.614 449.523 367.365 450.388 367.365 451.62V458H364.857V445.878H367.365V447.638ZM384.41 451.642C384.41 452.097 384.381 452.507 384.322 452.874H375.06C375.134 453.842 375.493 454.619 376.138 455.206C376.784 455.793 377.576 456.086 378.514 456.086C379.864 456.086 380.817 455.521 381.374 454.392H384.08C383.714 455.507 383.046 456.423 382.078 457.142C381.125 457.846 379.937 458.198 378.514 458.198C377.356 458.198 376.314 457.941 375.39 457.428C374.481 456.9 373.762 456.167 373.234 455.228C372.721 454.275 372.464 453.175 372.464 451.928C372.464 450.681 372.714 449.589 373.212 448.65C373.726 447.697 374.437 446.963 375.346 446.45C376.27 445.937 377.326 445.68 378.514 445.68C379.658 445.68 380.678 445.929 381.572 446.428C382.467 446.927 383.164 447.631 383.662 448.54C384.161 449.435 384.41 450.469 384.41 451.642ZM381.792 450.85C381.778 449.926 381.448 449.185 380.802 448.628C380.157 448.071 379.358 447.792 378.404 447.792C377.539 447.792 376.798 448.071 376.182 448.628C375.566 449.171 375.2 449.911 375.082 450.85H381.792ZM386.043 451.928C386.043 450.681 386.292 449.589 386.791 448.65C387.304 447.697 388.008 446.963 388.903 446.45C389.797 445.937 390.824 445.68 391.983 445.68C393.449 445.68 394.659 446.032 395.613 446.736C396.581 447.425 397.233 448.415 397.571 449.706H394.865C394.645 449.105 394.293 448.635 393.809 448.298C393.325 447.961 392.716 447.792 391.983 447.792C390.956 447.792 390.135 448.159 389.519 448.892C388.917 449.611 388.617 450.623 388.617 451.928C388.617 453.233 388.917 454.253 389.519 454.986C390.135 455.719 390.956 456.086 391.983 456.086C393.435 456.086 394.395 455.448 394.865 454.172H397.571C397.219 455.404 396.559 456.387 395.591 457.12C394.623 457.839 393.42 458.198 391.983 458.198C390.824 458.198 389.797 457.941 388.903 457.428C388.008 456.9 387.304 456.167 386.791 455.228C386.292 454.275 386.043 453.175 386.043 451.928ZM406.34 445.68C407.264 445.68 408.085 445.878 408.804 446.274C409.537 446.67 410.109 447.257 410.52 448.034C410.945 448.811 411.158 449.75 411.158 450.85V458H408.672V451.224C408.672 450.139 408.401 449.31 407.858 448.738C407.315 448.151 406.575 447.858 405.636 447.858C404.697 447.858 403.949 448.151 403.392 448.738C402.849 449.31 402.578 450.139 402.578 451.224V458H400.07V441.72H402.578V447.286C403.003 446.773 403.539 446.377 404.184 446.098C404.844 445.819 405.563 445.68 406.34 445.68ZM413.521 451.884C413.521 450.667 413.77 449.589 414.269 448.65C414.782 447.711 415.472 446.985 416.337 446.472C417.217 445.944 418.185 445.68 419.241 445.68C420.194 445.68 421.023 445.871 421.727 446.252C422.446 446.619 423.018 447.081 423.443 447.638V445.878H425.973V458H423.443V456.196C423.018 456.768 422.438 457.245 421.705 457.626C420.972 458.007 420.136 458.198 419.197 458.198C418.156 458.198 417.202 457.934 416.337 457.406C415.472 456.863 414.782 456.115 414.269 455.162C413.77 454.194 413.521 453.101 413.521 451.884ZM423.443 451.928C423.443 451.092 423.267 450.366 422.915 449.75C422.578 449.134 422.13 448.665 421.573 448.342C421.016 448.019 420.414 447.858 419.769 447.858C419.124 447.858 418.522 448.019 417.965 448.342C417.408 448.65 416.953 449.112 416.601 449.728C416.264 450.329 416.095 451.048 416.095 451.884C416.095 452.72 416.264 453.453 416.601 454.084C416.953 454.715 417.408 455.199 417.965 455.536C418.537 455.859 419.138 456.02 419.769 456.02C420.414 456.02 421.016 455.859 421.573 455.536C422.13 455.213 422.578 454.744 422.915 454.128C423.267 453.497 423.443 452.764 423.443 451.928ZM430.279 458.154C429.825 458.154 429.443 458 429.135 457.692C428.827 457.384 428.673 457.003 428.673 456.548C428.673 456.093 428.827 455.712 429.135 455.404C429.443 455.096 429.825 454.942 430.279 454.942C430.719 454.942 431.093 455.096 431.401 455.404C431.709 455.712 431.863 456.093 431.863 456.548C431.863 457.003 431.709 457.384 431.401 457.692C431.093 458 430.719 458.154 430.279 458.154Z" fill="#C45185"/>
<g filter="url(#filter1_d_110_12499)">
<rect x="132" y="488" width="326" height="69" rx="15" fill="#FFF2F7"/>
<rect x="133" y="489" width="324" height="67" rx="14" stroke="#AA396C" stroke-width="2"/>
</g>
<path d="M255.014 527.308H247.448L246.148 531H243.054L249.528 512.904H252.96L259.434 531H256.314L255.014 527.308ZM254.182 524.89L251.244 516.492L248.28 524.89H254.182ZM261.261 523.824C261.261 522.351 261.555 521.059 262.145 519.95C262.751 518.823 263.583 517.957 264.641 517.35C265.698 516.743 266.911 516.44 268.281 516.44C270.014 516.44 271.444 516.856 272.571 517.688C273.715 518.503 274.486 519.673 274.885 521.198H271.687C271.427 520.487 271.011 519.933 270.439 519.534C269.867 519.135 269.147 518.936 268.281 518.936C267.067 518.936 266.097 519.369 265.369 520.236C264.658 521.085 264.303 522.281 264.303 523.824C264.303 525.367 264.658 526.571 265.369 527.438C266.097 528.305 267.067 528.738 268.281 528.738C269.997 528.738 271.132 527.984 271.687 526.476H274.885C274.469 527.932 273.689 529.093 272.545 529.96C271.401 530.809 269.979 531.234 268.281 531.234C266.911 531.234 265.698 530.931 264.641 530.324C263.583 529.7 262.751 528.833 262.145 527.724C261.555 526.597 261.261 525.297 261.261 523.824ZM290.969 523.486C290.969 524.023 290.934 524.509 290.865 524.942H279.919C280.005 526.086 280.43 527.005 281.193 527.698C281.955 528.391 282.891 528.738 284.001 528.738C285.595 528.738 286.722 528.071 287.381 526.736H290.579C290.145 528.053 289.357 529.137 288.213 529.986C287.086 530.818 285.682 531.234 284.001 531.234C282.631 531.234 281.401 530.931 280.309 530.324C279.234 529.7 278.385 528.833 277.761 527.724C277.154 526.597 276.851 525.297 276.851 523.824C276.851 522.351 277.145 521.059 277.735 519.95C278.341 518.823 279.182 517.957 280.257 517.35C281.349 516.743 282.597 516.44 284.001 516.44C285.353 516.44 286.557 516.735 287.615 517.324C288.672 517.913 289.495 518.745 290.085 519.82C290.674 520.877 290.969 522.099 290.969 523.486ZM287.875 522.55C287.857 521.458 287.467 520.583 286.705 519.924C285.942 519.265 284.997 518.936 283.871 518.936C282.848 518.936 281.973 519.265 281.245 519.924C280.517 520.565 280.083 521.441 279.945 522.55H287.875ZM296.85 518.78C297.352 518.121 298.037 517.567 298.904 517.116C299.77 516.665 300.75 516.44 301.842 516.44C303.09 516.44 304.225 516.752 305.248 517.376C306.288 517.983 307.102 518.841 307.692 519.95C308.281 521.059 308.576 522.333 308.576 523.772C308.576 525.211 308.281 526.502 307.692 527.646C307.102 528.773 306.288 529.657 305.248 530.298C304.225 530.922 303.09 531.234 301.842 531.234C300.75 531.234 299.779 531.017 298.93 530.584C298.08 530.133 297.387 529.579 296.85 528.92V537.812H293.886V516.674H296.85V518.78ZM305.56 523.772C305.56 522.784 305.352 521.935 304.936 521.224C304.537 520.496 304 519.95 303.324 519.586C302.665 519.205 301.954 519.014 301.192 519.014C300.446 519.014 299.736 519.205 299.06 519.586C298.401 519.967 297.864 520.522 297.448 521.25C297.049 521.978 296.85 522.836 296.85 523.824C296.85 524.812 297.049 525.679 297.448 526.424C297.864 527.152 298.401 527.707 299.06 528.088C299.736 528.469 300.446 528.66 301.192 528.66C301.954 528.66 302.665 528.469 303.324 528.088C304 527.689 304.537 527.117 304.936 526.372C305.352 525.627 305.56 524.76 305.56 523.772ZM314.965 519.092V527.022C314.965 527.559 315.086 527.949 315.329 528.192C315.589 528.417 316.022 528.53 316.629 528.53H318.449V531H316.109C314.774 531 313.751 530.688 313.041 530.064C312.33 529.44 311.975 528.426 311.975 527.022V519.092H310.285V516.674H311.975V513.112H314.965V516.674H318.449V519.092H314.965ZM320.192 523.772C320.192 522.333 320.487 521.059 321.076 519.95C321.683 518.841 322.498 517.983 323.52 517.376C324.56 516.752 325.704 516.44 326.952 516.44C328.079 516.44 329.058 516.665 329.89 517.116C330.74 517.549 331.416 518.095 331.918 518.754V516.674H334.908V531H331.918V528.868C331.416 529.544 330.731 530.107 329.864 530.558C328.998 531.009 328.01 531.234 326.9 531.234C325.67 531.234 324.543 530.922 323.52 530.298C322.498 529.657 321.683 528.773 321.076 527.646C320.487 526.502 320.192 525.211 320.192 523.772ZM331.918 523.824C331.918 522.836 331.71 521.978 331.294 521.25C330.896 520.522 330.367 519.967 329.708 519.586C329.05 519.205 328.339 519.014 327.576 519.014C326.814 519.014 326.103 519.205 325.444 519.586C324.786 519.95 324.248 520.496 323.832 521.224C323.434 521.935 323.234 522.784 323.234 523.772C323.234 524.76 323.434 525.627 323.832 526.372C324.248 527.117 324.786 527.689 325.444 528.088C326.12 528.469 326.831 528.66 327.576 528.66C328.339 528.66 329.05 528.469 329.708 528.088C330.367 527.707 330.896 527.152 331.294 526.424C331.71 525.679 331.918 524.812 331.918 523.824ZM341.766 518.754C342.199 518.026 342.771 517.463 343.482 517.064C344.21 516.648 345.068 516.44 346.056 516.44V519.508H345.302C344.14 519.508 343.256 519.803 342.65 520.392C342.06 520.981 341.766 522.004 341.766 523.46V531H338.802V516.674H341.766V518.754Z" fill="#AA396C"/>
</g>
<defs>
<filter id="filter0_d_110_12499" x="75.3" y="353.3" width="449.4" height="247.4" filterUnits="userSpaceOnUse" color-interpolation-filters="sRGB">
<feFlood flood-opacity="0" result="BackgroundImageFix"/>
<feColorMatrix in="SourceAlpha" type="matrix" values="0 0 0 0 0 0 0 0 0 0 0 0 0 0 0 0 0 0 127 0" result="hardAlpha"/>
<feOffset dx="5" dy="4"/>
<feGaussianBlur stdDeviation="2.85"/>
<feComposite in2="hardAlpha" operator="out"/>
<feColorMatrix type="matrix" values="0 0 0 0 0 0 0 0 0 0 0 0 0 0 0 0 0 0 0.25 0"/>
<feBlend mode="normal" in2="BackgroundImageFix" result="effect1_dropShadow_110_12499"/>
<feBlend mode="normal" in="SourceGraphic" in2="effect1_dropShadow_110_12499" result="shape"/>
</filter>
<filter id="filter1_d_110_12499" x="128" y="488" width="334" height="77" filterUnits="userSpaceOnUse" color-interpolation-filters="sRGB">
<feFlood flood-opacity="0" result="BackgroundImageFix"/>
<feColorMatrix in="SourceAlpha" type="matrix" values="0 0 0 0 0 0 0 0 0 0 0 0 0 0 0 0 0 0 127 0" result="hardAlpha"/>
<feOffset dy="4"/>
<feGaussianBlur stdDeviation="2"/>
<feComposite in2="hardAlpha" operator="out"/>
<feColorMatrix type="matrix" values="0 0 0 0 0 0 0 0 0 0 0 0 0 0 0 0 0 0 0.25 0"/>
<feBlend mode="normal" in2="BackgroundImageFix" result="effect1_dropShadow_110_12499"/>
<feBlend mode="normal" in="SourceGraphic" in2="effect1_dropShadow_110_12499" result="shape"/>
</filter>
</defs>
</svg>
