<svg width="390" height="844" viewBox="0 0 390 844" fill="none" xmlns="http://www.w3.org/2000/svg">
<rect width="390" height="844" fill="#FCEBF1"/>
<g filter="url(#filter0_d_110_10798)">
<rect x="30" y="319" width="329" height="206" rx="20" fill="#FFCEDE"/>
<path d="M82.3763 372.216C82.3763 372.852 82.2263 373.452 81.9263 374.016C81.6263 374.58 81.1463 375.042 80.4863 375.402C79.8263 375.75 78.9803 375.924 77.9483 375.924H75.6803V381H73.6283V368.49H77.9483C78.9083 368.49 79.7183 368.658 80.3783 368.994C81.0503 369.318 81.5483 369.762 81.8723 370.326C82.2083 370.89 82.3763 371.52 82.3763 372.216ZM77.9483 374.25C78.7283 374.25 79.3103 374.076 79.6943 373.728C80.0783 373.368 80.2703 372.864 80.2703 372.216C80.2703 370.848 79.4963 370.164 77.9483 370.164H75.6803V374.25H77.9483ZM83.6494 375.996C83.6494 375 83.8534 374.118 84.2614 373.35C84.6814 372.582 85.2454 371.988 85.9534 371.568C86.6734 371.136 87.4654 370.92 88.3294 370.92C89.1094 370.92 89.7874 371.076 90.3634 371.388C90.9514 371.688 91.4194 372.066 91.7674 372.522V371.082H93.8374V381H91.7674V379.524C91.4194 379.992 90.9454 380.382 90.3454 380.694C89.7454 381.006 89.0614 381.162 88.2934 381.162C87.4414 381.162 86.6614 380.946 85.9534 380.514C85.2454 380.07 84.6814 379.458 84.2614 378.678C83.8534 377.886 83.6494 376.992 83.6494 375.996ZM91.7674 376.032C91.7674 375.348 91.6234 374.754 91.3354 374.25C91.0594 373.746 90.6934 373.362 90.2374 373.098C89.7814 372.834 89.2894 372.702 88.7614 372.702C88.2334 372.702 87.7414 372.834 87.2854 373.098C86.8294 373.35 86.4574 373.728 86.1694 374.232C85.8934 374.724 85.7554 375.312 85.7554 375.996C85.7554 376.68 85.8934 377.28 86.1694 377.796C86.4574 378.312 86.8294 378.708 87.2854 378.984C87.7534 379.248 88.2454 379.38 88.7614 379.38C89.2894 379.38 89.7814 379.248 90.2374 378.984C90.6934 378.72 91.0594 378.336 91.3354 377.832C91.6234 377.316 91.7674 376.716 91.7674 376.032ZM100.133 381.162C99.3526 381.162 98.6506 381.024 98.0266 380.748C97.4146 380.46 96.9286 380.076 96.5686 379.596C96.2086 379.104 96.0166 378.558 95.9926 377.958H98.1166C98.1526 378.378 98.3506 378.732 98.7106 379.02C99.0826 379.296 99.5446 379.434 100.097 379.434C100.673 379.434 101.117 379.326 101.429 379.11C101.753 378.882 101.915 378.594 101.915 378.246C101.915 377.874 101.735 377.598 101.375 377.418C101.027 377.238 100.469 377.04 99.7006 376.824C98.9566 376.62 98.3506 376.422 97.8826 376.23C97.4146 376.038 97.0066 375.744 96.6586 375.348C96.3226 374.952 96.1546 374.43 96.1546 373.782C96.1546 373.254 96.3106 372.774 96.6226 372.342C96.9346 371.898 97.3786 371.55 97.9546 371.298C98.5426 371.046 99.2146 370.92 99.9706 370.92C101.099 370.92 102.005 371.208 102.689 371.784C103.385 372.348 103.757 373.122 103.805 374.106H101.753C101.717 373.662 101.537 373.308 101.213 373.044C100.889 372.78 100.451 372.648 99.8986 372.648C99.3586 372.648 98.9446 372.75 98.6566 372.954C98.3686 373.158 98.2246 373.428 98.2246 373.764C98.2246 374.028 98.3206 374.25 98.5126 374.43C98.7046 374.61 98.9386 374.754 99.2146 374.862C99.4906 374.958 99.8986 375.084 100.439 375.24C101.159 375.432 101.747 375.63 102.203 375.834C102.671 376.026 103.073 376.314 103.409 376.698C103.745 377.082 103.919 377.592 103.931 378.228C103.931 378.792 103.775 379.296 103.463 379.74C103.151 380.184 102.707 380.532 102.131 380.784C101.567 381.036 100.901 381.162 100.133 381.162ZM105.464 375.996C105.464 375 105.668 374.118 106.076 373.35C106.496 372.582 107.06 371.988 107.768 371.568C108.488 371.136 109.28 370.92 110.144 370.92C110.924 370.92 111.602 371.076 112.178 371.388C112.766 371.688 113.234 372.066 113.582 372.522V371.082H115.652V381H113.582V379.524C113.234 379.992 112.76 380.382 112.16 380.694C111.56 381.006 110.876 381.162 110.108 381.162C109.256 381.162 108.476 380.946 107.768 380.514C107.06 380.07 106.496 379.458 106.076 378.678C105.668 377.886 105.464 376.992 105.464 375.996ZM113.582 376.032C113.582 375.348 113.438 374.754 113.15 374.25C112.874 373.746 112.508 373.362 112.052 373.098C111.596 372.834 111.104 372.702 110.576 372.702C110.048 372.702 109.556 372.834 109.1 373.098C108.644 373.35 108.272 373.728 107.984 374.232C107.708 374.724 107.57 375.312 107.57 375.996C107.57 376.68 107.708 377.28 107.984 377.796C108.272 378.312 108.644 378.708 109.1 378.984C109.568 379.248 110.06 379.38 110.576 379.38C111.104 379.38 111.596 379.248 112.052 378.984C112.508 378.72 112.874 378.336 113.15 377.832C113.438 377.316 113.582 376.716 113.582 376.032ZM112.754 368.418L108.776 370.38V368.868L112.754 366.672V368.418ZM122.339 375.996C122.339 375 122.543 374.118 122.951 373.35C123.371 372.582 123.935 371.988 124.643 371.568C125.363 371.136 126.161 370.92 127.037 370.92C127.685 370.92 128.321 371.064 128.945 371.352C129.581 371.628 130.085 372 130.457 372.468V367.68H132.527V381H130.457V379.506C130.121 379.986 129.653 380.382 129.053 380.694C128.465 381.006 127.787 381.162 127.019 381.162C126.155 381.162 125.363 380.946 124.643 380.514C123.935 380.07 123.371 379.458 122.951 378.678C122.543 377.886 122.339 376.992 122.339 375.996ZM130.457 376.032C130.457 375.348 130.313 374.754 130.025 374.25C129.749 373.746 129.383 373.362 128.927 373.098C128.471 372.834 127.979 372.702 127.451 372.702C126.923 372.702 126.431 372.834 125.975 373.098C125.519 373.35 125.147 373.728 124.859 374.232C124.583 374.724 124.445 375.312 124.445 375.996C124.445 376.68 124.583 377.28 124.859 377.796C125.147 378.312 125.519 378.708 125.975 378.984C126.443 379.248 126.935 379.38 127.451 379.38C127.979 379.38 128.471 379.248 128.927 378.984C129.383 378.72 129.749 378.336 130.025 377.832C130.313 377.316 130.457 376.716 130.457 376.032ZM144.312 375.798C144.312 376.17 144.288 376.506 144.24 376.806H136.662C136.722 377.598 137.016 378.234 137.544 378.714C138.072 379.194 138.72 379.434 139.488 379.434C140.592 379.434 141.372 378.972 141.828 378.048H144.042C143.742 378.96 143.196 379.71 142.404 380.298C141.624 380.874 140.652 381.162 139.488 381.162C138.54 381.162 137.688 380.952 136.932 380.532C136.188 380.1 135.6 379.5 135.168 378.732C134.748 377.952 134.538 377.052 134.538 376.032C134.538 375.012 134.742 374.118 135.15 373.35C135.57 372.57 136.152 371.97 136.896 371.55C137.652 371.13 138.516 370.92 139.488 370.92C140.424 370.92 141.258 371.124 141.99 371.532C142.722 371.94 143.292 372.516 143.7 373.26C144.108 373.992 144.312 374.838 144.312 375.798ZM142.17 375.15C142.158 374.394 141.888 373.788 141.36 373.332C140.832 372.876 140.178 372.648 139.398 372.648C138.69 372.648 138.084 372.876 137.58 373.332C137.076 373.776 136.776 374.382 136.68 375.15H142.17ZM153.059 372.54C153.407 372.084 153.881 371.7 154.481 371.388C155.081 371.076 155.759 370.92 156.515 370.92C157.379 370.92 158.165 371.136 158.873 371.568C159.593 371.988 160.157 372.582 160.565 373.35C160.973 374.118 161.177 375 161.177 375.996C161.177 376.992 160.973 377.886 160.565 378.678C160.157 379.458 159.593 380.07 158.873 380.514C158.165 380.946 157.379 381.162 156.515 381.162C155.759 381.162 155.087 381.012 154.499 380.712C153.911 380.4 153.431 380.016 153.059 379.56V385.716H151.007V371.082H153.059V372.54ZM159.089 375.996C159.089 375.312 158.945 374.724 158.657 374.232C158.381 373.728 158.009 373.35 157.541 373.098C157.085 372.834 156.593 372.702 156.065 372.702C155.549 372.702 155.057 372.834 154.589 373.098C154.133 373.362 153.761 373.746 153.473 374.25C153.197 374.754 153.059 375.348 153.059 376.032C153.059 376.716 153.197 377.316 153.473 377.832C153.761 378.336 154.133 378.72 154.589 378.984C155.057 379.248 155.549 379.38 156.065 379.38C156.593 379.38 157.085 379.248 157.541 378.984C158.009 378.708 158.381 378.312 158.657 377.796C158.945 377.28 159.089 376.68 159.089 375.996ZM162.522 375.996C162.522 375 162.726 374.118 163.134 373.35C163.554 372.582 164.118 371.988 164.826 371.568C165.546 371.136 166.338 370.92 167.202 370.92C167.982 370.92 168.66 371.076 169.236 371.388C169.824 371.688 170.292 372.066 170.64 372.522V371.082H172.71V381H170.64V379.524C170.292 379.992 169.818 380.382 169.218 380.694C168.618 381.006 167.934 381.162 167.166 381.162C166.314 381.162 165.534 380.946 164.826 380.514C164.118 380.07 163.554 379.458 163.134 378.678C162.726 377.886 162.522 376.992 162.522 375.996ZM170.64 376.032C170.64 375.348 170.496 374.754 170.208 374.25C169.932 373.746 169.566 373.362 169.11 373.098C168.654 372.834 168.162 372.702 167.634 372.702C167.106 372.702 166.614 372.834 166.158 373.098C165.702 373.35 165.33 373.728 165.042 374.232C164.766 374.724 164.628 375.312 164.628 375.996C164.628 376.68 164.766 377.28 165.042 377.796C165.33 378.312 165.702 378.708 166.158 378.984C166.626 379.248 167.118 379.38 167.634 379.38C168.162 379.38 168.654 379.248 169.11 378.984C169.566 378.72 169.932 378.336 170.208 377.832C170.496 377.316 170.64 376.716 170.64 376.032ZM169.812 368.418L165.834 370.38V368.868L169.812 366.672V368.418ZM179.402 370.92C180.17 370.92 180.848 371.076 181.436 371.388C182.036 371.688 182.504 372.066 182.84 372.522V371.082H184.91V381.162C184.91 382.074 184.718 382.884 184.334 383.592C183.95 384.312 183.392 384.876 182.66 385.284C181.94 385.692 181.076 385.896 180.068 385.896C178.724 385.896 177.608 385.578 176.72 384.942C175.832 384.318 175.328 383.466 175.208 382.386H177.242C177.398 382.902 177.728 383.316 178.232 383.628C178.748 383.952 179.36 384.114 180.068 384.114C180.896 384.114 181.562 383.862 182.066 383.358C182.582 382.854 182.84 382.122 182.84 381.162V379.506C182.492 379.974 182.018 380.37 181.418 380.694C180.83 381.006 180.158 381.162 179.402 381.162C178.538 381.162 177.746 380.946 177.026 380.514C176.318 380.07 175.754 379.458 175.334 378.678C174.926 377.886 174.722 376.992 174.722 375.996C174.722 375 174.926 374.118 175.334 373.35C175.754 372.582 176.318 371.988 177.026 371.568C177.746 371.136 178.538 370.92 179.402 370.92ZM182.84 376.032C182.84 375.348 182.696 374.754 182.408 374.25C182.132 373.746 181.766 373.362 181.31 373.098C180.854 372.834 180.362 372.702 179.834 372.702C179.306 372.702 178.814 372.834 178.358 373.098C177.902 373.35 177.53 373.728 177.242 374.232C176.966 374.724 176.828 375.312 176.828 375.996C176.828 376.68 176.966 377.28 177.242 377.796C177.53 378.312 177.902 378.708 178.358 378.984C178.826 379.248 179.318 379.38 179.834 379.38C180.362 379.38 180.854 379.248 181.31 378.984C181.766 378.72 182.132 378.336 182.408 377.832C182.696 377.316 182.84 376.716 182.84 376.032ZM188.649 369.768C188.277 369.768 187.965 369.642 187.713 369.39C187.461 369.138 187.335 368.826 187.335 368.454C187.335 368.082 187.461 367.77 187.713 367.518C187.965 367.266 188.277 367.14 188.649 367.14C189.009 367.14 189.315 367.266 189.567 367.518C189.819 367.77 189.945 368.082 189.945 368.454C189.945 368.826 189.819 369.138 189.567 369.39C189.315 369.642 189.009 369.768 188.649 369.768ZM189.657 371.082V381H187.605V371.082H189.657ZM197.355 370.92C198.135 370.92 198.831 371.082 199.443 371.406C200.067 371.73 200.553 372.21 200.901 372.846C201.249 373.482 201.423 374.25 201.423 375.15V381H199.389V375.456C199.389 374.568 199.167 373.89 198.723 373.422C198.279 372.942 197.673 372.702 196.905 372.702C196.137 372.702 195.525 372.942 195.069 373.422C194.625 373.89 194.403 374.568 194.403 375.456V381H192.351V371.082H194.403V372.216C194.739 371.808 195.165 371.49 195.681 371.262C196.209 371.034 196.767 370.92 197.355 370.92ZM203.356 375.996C203.356 375 203.56 374.118 203.968 373.35C204.388 372.582 204.952 371.988 205.66 371.568C206.38 371.136 207.172 370.92 208.036 370.92C208.816 370.92 209.494 371.076 210.07 371.388C210.658 371.688 211.126 372.066 211.474 372.522V371.082H213.544V381H211.474V379.524C211.126 379.992 210.652 380.382 210.052 380.694C209.452 381.006 208.768 381.162 208 381.162C207.148 381.162 206.368 380.946 205.66 380.514C204.952 380.07 204.388 379.458 203.968 378.678C203.56 377.886 203.356 376.992 203.356 375.996ZM211.474 376.032C211.474 375.348 211.33 374.754 211.042 374.25C210.766 373.746 210.4 373.362 209.944 373.098C209.488 372.834 208.996 372.702 208.468 372.702C207.94 372.702 207.448 372.834 206.992 373.098C206.536 373.35 206.164 373.728 205.876 374.232C205.6 374.724 205.462 375.312 205.462 375.996C205.462 376.68 205.6 377.28 205.876 377.796C206.164 378.312 206.536 378.708 206.992 378.984C207.46 379.248 207.952 379.38 208.468 379.38C208.996 379.38 209.488 379.248 209.944 378.984C210.4 378.72 210.766 378.336 211.042 377.832C211.33 377.316 211.474 376.716 211.474 376.032ZM223.309 372.756V378.246C223.309 378.618 223.393 378.888 223.561 379.056C223.741 379.212 224.041 379.29 224.461 379.29H225.721V381H224.101C223.177 381 222.469 380.784 221.977 380.352C221.485 379.92 221.239 379.218 221.239 378.246V372.756H220.069V371.082H221.239V368.616H223.309V371.082H225.721V372.756H223.309ZM231.915 381.162C230.979 381.162 230.133 380.952 229.377 380.532C228.621 380.1 228.027 379.5 227.595 378.732C227.163 377.952 226.947 377.052 226.947 376.032C226.947 375.024 227.169 374.13 227.613 373.35C228.057 372.57 228.663 371.97 229.431 371.55C230.199 371.13 231.057 370.92 232.005 370.92C232.953 370.92 233.811 371.13 234.579 371.55C235.347 371.97 235.953 372.57 236.397 373.35C236.841 374.13 237.063 375.024 237.063 376.032C237.063 377.04 236.835 377.934 236.379 378.714C235.923 379.494 235.299 380.1 234.507 380.532C233.727 380.952 232.863 381.162 231.915 381.162ZM231.915 379.38C232.443 379.38 232.935 379.254 233.391 379.002C233.859 378.75 234.237 378.372 234.525 377.868C234.813 377.364 234.957 376.752 234.957 376.032C234.957 375.312 234.819 374.706 234.543 374.214C234.267 373.71 233.901 373.332 233.445 373.08C232.989 372.828 232.497 372.702 231.969 372.702C231.441 372.702 230.949 372.828 230.493 373.08C230.049 373.332 229.695 373.71 229.431 374.214C229.167 374.706 229.035 375.312 229.035 376.032C229.035 377.1 229.305 377.928 229.845 378.516C230.397 379.092 231.087 379.38 231.915 379.38ZM238.407 376.032C238.407 375.012 238.611 374.118 239.019 373.35C239.439 372.57 240.015 371.97 240.747 371.55C241.479 371.13 242.319 370.92 243.267 370.92C244.467 370.92 245.457 371.208 246.237 371.784C247.029 372.348 247.563 373.158 247.839 374.214H245.625C245.445 373.722 245.157 373.338 244.761 373.062C244.365 372.786 243.867 372.648 243.267 372.648C242.427 372.648 241.755 372.948 241.251 373.548C240.759 374.136 240.513 374.964 240.513 376.032C240.513 377.1 240.759 377.934 241.251 378.534C241.755 379.134 242.427 379.434 243.267 379.434C244.455 379.434 245.241 378.912 245.625 377.868H247.839C247.551 378.876 247.011 379.68 246.219 380.28C245.427 380.868 244.443 381.162 243.267 381.162C242.319 381.162 241.479 380.952 240.747 380.532C240.015 380.1 239.439 379.5 239.019 378.732C238.611 377.952 238.407 377.052 238.407 376.032ZM249.2 375.996C249.2 375 249.404 374.118 249.812 373.35C250.232 372.582 250.796 371.988 251.504 371.568C252.224 371.136 253.016 370.92 253.88 370.92C254.66 370.92 255.338 371.076 255.914 371.388C256.502 371.688 256.97 372.066 257.318 372.522V371.082H259.388V381H257.318V379.524C256.97 379.992 256.496 380.382 255.896 380.694C255.296 381.006 254.612 381.162 253.844 381.162C252.992 381.162 252.212 380.946 251.504 380.514C250.796 380.07 250.232 379.458 249.812 378.678C249.404 377.886 249.2 376.992 249.2 375.996ZM257.318 376.032C257.318 375.348 257.174 374.754 256.886 374.25C256.61 373.746 256.244 373.362 255.788 373.098C255.332 372.834 254.84 372.702 254.312 372.702C253.784 372.702 253.292 372.834 252.836 373.098C252.38 373.35 252.008 373.728 251.72 374.232C251.444 374.724 251.306 375.312 251.306 375.996C251.306 376.68 251.444 377.28 251.72 377.796C252.008 378.312 252.38 378.708 252.836 378.984C253.304 379.248 253.796 379.38 254.312 379.38C254.84 379.38 255.332 379.248 255.788 378.984C256.244 378.72 256.61 378.336 256.886 377.832C257.174 377.316 257.318 376.716 257.318 376.032ZM267.087 370.92C267.867 370.92 268.563 371.082 269.175 371.406C269.799 371.73 270.285 372.21 270.633 372.846C270.981 373.482 271.155 374.25 271.155 375.15V381H269.121V375.456C269.121 374.568 268.899 373.89 268.455 373.422C268.011 372.942 267.405 372.702 266.637 372.702C265.869 372.702 265.257 372.942 264.801 373.422C264.357 373.89 264.135 374.568 264.135 375.456V381H262.083V371.082H264.135V372.216C264.471 371.808 264.897 371.49 265.413 371.262C265.941 371.034 266.499 370.92 267.087 370.92ZM273.089 375.996C273.089 375 273.293 374.118 273.701 373.35C274.121 372.582 274.685 371.988 275.393 371.568C276.113 371.136 276.911 370.92 277.787 370.92C278.435 370.92 279.071 371.064 279.695 371.352C280.331 371.628 280.835 372 281.207 372.468V367.68H283.277V381H281.207V379.506C280.871 379.986 280.403 380.382 279.803 380.694C279.215 381.006 278.537 381.162 277.769 381.162C276.905 381.162 276.113 380.946 275.393 380.514C274.685 380.07 274.121 379.458 273.701 378.678C273.293 377.886 273.089 376.992 273.089 375.996ZM281.207 376.032C281.207 375.348 281.063 374.754 280.775 374.25C280.499 373.746 280.133 373.362 279.677 373.098C279.221 372.834 278.729 372.702 278.201 372.702C277.673 372.702 277.181 372.834 276.725 373.098C276.269 373.35 275.897 373.728 275.609 374.232C275.333 374.724 275.195 375.312 275.195 375.996C275.195 376.68 275.333 377.28 275.609 377.796C275.897 378.312 276.269 378.708 276.725 378.984C277.193 379.248 277.685 379.38 278.201 379.38C278.729 379.38 279.221 379.248 279.677 378.984C280.133 378.72 280.499 378.336 280.775 377.832C281.063 377.316 281.207 376.716 281.207 376.032ZM290.274 381.162C289.338 381.162 288.492 380.952 287.736 380.532C286.98 380.1 286.386 379.5 285.954 378.732C285.522 377.952 285.306 377.052 285.306 376.032C285.306 375.024 285.528 374.13 285.972 373.35C286.416 372.57 287.022 371.97 287.79 371.55C288.558 371.13 289.416 370.92 290.364 370.92C291.312 370.92 292.17 371.13 292.938 371.55C293.706 371.97 294.312 372.57 294.756 373.35C295.2 374.13 295.422 375.024 295.422 376.032C295.422 377.04 295.194 377.934 294.738 378.714C294.282 379.494 293.658 380.1 292.866 380.532C292.086 380.952 291.222 381.162 290.274 381.162ZM290.274 379.38C290.802 379.38 291.294 379.254 291.75 379.002C292.218 378.75 292.596 378.372 292.884 377.868C293.172 377.364 293.316 376.752 293.316 376.032C293.316 375.312 293.178 374.706 292.902 374.214C292.626 373.71 292.26 373.332 291.804 373.08C291.348 372.828 290.856 372.702 290.328 372.702C289.8 372.702 289.308 372.828 288.852 373.08C288.408 373.332 288.054 373.71 287.79 374.214C287.526 374.706 287.394 375.312 287.394 376.032C287.394 377.1 287.664 377.928 288.204 378.516C288.756 379.092 289.446 379.38 290.274 379.38ZM304.178 367.68V381H302.126V367.68H304.178ZM306.188 375.996C306.188 375 306.392 374.118 306.8 373.35C307.22 372.582 307.784 371.988 308.492 371.568C309.212 371.136 310.004 370.92 310.868 370.92C311.648 370.92 312.326 371.076 312.902 371.388C313.49 371.688 313.958 372.066 314.306 372.522V371.082H316.376V381H314.306V379.524C313.958 379.992 313.484 380.382 312.884 380.694C312.284 381.006 311.6 381.162 310.832 381.162C309.98 381.162 309.2 380.946 308.492 380.514C307.784 380.07 307.22 379.458 306.8 378.678C306.392 377.886 306.188 376.992 306.188 375.996ZM314.306 376.032C314.306 375.348 314.162 374.754 313.874 374.25C313.598 373.746 313.232 373.362 312.776 373.098C312.32 372.834 311.828 372.702 311.3 372.702C310.772 372.702 310.28 372.834 309.824 373.098C309.368 373.35 308.996 373.728 308.708 374.232C308.432 374.724 308.294 375.312 308.294 375.996C308.294 376.68 308.432 377.28 308.708 377.796C308.996 378.312 309.368 378.708 309.824 378.984C310.292 379.248 310.784 379.38 311.3 379.38C311.828 379.38 312.32 379.248 312.776 378.984C313.232 378.72 313.598 378.336 313.874 377.832C314.162 377.316 314.306 376.716 314.306 376.032ZM92.1841 402.798C92.1841 403.17 92.1601 403.506 92.1121 403.806H84.5341C84.5941 404.598 84.8881 405.234 85.4161 405.714C85.9441 406.194 86.5921 406.434 87.3601 406.434C88.4641 406.434 89.2441 405.972 89.7001 405.048H91.9141C91.6141 405.96 91.0681 406.71 90.2761 407.298C89.4961 407.874 88.5241 408.162 87.3601 408.162C86.4121 408.162 85.5601 407.952 84.8041 407.532C84.0601 407.1 83.4721 406.5 83.0401 405.732C82.6201 404.952 82.4101 404.052 82.4101 403.032C82.4101 402.012 82.6141 401.118 83.0221 400.35C83.4421 399.57 84.0241 398.97 84.7681 398.55C85.5241 398.13 86.3881 397.92 87.3601 397.92C88.2961 397.92 89.1301 398.124 89.8621 398.532C90.5941 398.94 91.1641 399.516 91.5721 400.26C91.9801 400.992 92.1841 401.838 92.1841 402.798ZM90.0421 402.15C90.0301 401.394 89.7601 400.788 89.2321 400.332C88.7041 399.876 88.0501 399.648 87.2701 399.648C86.5621 399.648 85.9561 399.876 85.4521 400.332C84.9481 400.776 84.6481 401.382 84.5521 402.15H90.0421ZM97.8035 408.162C97.0235 408.162 96.3215 408.024 95.6975 407.748C95.0855 407.46 94.5995 407.076 94.2395 406.596C93.8795 406.104 93.6875 405.558 93.6635 404.958H95.7875C95.8235 405.378 96.0215 405.732 96.3815 406.02C96.7535 406.296 97.2155 406.434 97.7675 406.434C98.3435 406.434 98.7875 406.326 99.0995 406.11C99.4235 405.882 99.5855 405.594 99.5855 405.246C99.5855 404.874 99.4055 404.598 99.0455 404.418C98.6975 404.238 98.1395 404.04 97.3715 403.824C96.6275 403.62 96.0215 403.422 95.5535 403.23C95.0855 403.038 94.6775 402.744 94.3295 402.348C93.9935 401.952 93.8255 401.43 93.8255 400.782C93.8255 400.254 93.9815 399.774 94.2935 399.342C94.6055 398.898 95.0495 398.55 95.6255 398.298C96.2135 398.046 96.8855 397.92 97.6415 397.92C98.7695 397.92 99.6755 398.208 100.36 398.784C101.056 399.348 101.428 400.122 101.476 401.106H99.4235C99.3875 400.662 99.2075 400.308 98.8835 400.044C98.5595 399.78 98.1215 399.648 97.5695 399.648C97.0295 399.648 96.6155 399.75 96.3275 399.954C96.0395 400.158 95.8955 400.428 95.8955 400.764C95.8955 401.028 95.9915 401.25 96.1835 401.43C96.3755 401.61 96.6095 401.754 96.8855 401.862C97.1615 401.958 97.5695 402.084 98.1095 402.24C98.8295 402.432 99.4175 402.63 99.8735 402.834C100.342 403.026 100.744 403.314 101.08 403.698C101.416 404.082 101.59 404.592 101.602 405.228C101.602 405.792 101.446 406.296 101.134 406.74C100.822 407.184 100.378 407.532 99.8015 407.784C99.2375 408.036 98.5715 408.162 97.8035 408.162ZM103.135 402.996C103.135 402 103.339 401.118 103.747 400.35C104.167 399.582 104.731 398.988 105.439 398.568C106.159 398.136 106.957 397.92 107.833 397.92C108.601 397.92 109.279 398.076 109.867 398.388C110.467 398.7 110.929 399.078 111.253 399.522V398.082H113.323V412.716H111.253V406.56C110.929 407.004 110.461 407.382 109.849 407.694C109.237 408.006 108.541 408.162 107.761 408.162C106.909 408.162 106.129 407.946 105.421 407.514C104.725 407.07 104.167 406.458 103.747 405.678C103.339 404.886 103.135 403.992 103.135 402.996ZM111.253 403.032C111.253 402.348 111.109 401.754 110.821 401.25C110.545 400.746 110.179 400.362 109.723 400.098C109.267 399.834 108.775 399.702 108.247 399.702C107.719 399.702 107.227 399.834 106.771 400.098C106.315 400.35 105.943 400.728 105.655 401.232C105.379 401.724 105.241 402.312 105.241 402.996C105.241 403.68 105.379 404.28 105.655 404.796C105.943 405.312 106.315 405.708 106.771 405.984C107.239 406.248 107.731 406.38 108.247 406.38C108.775 406.38 109.267 406.248 109.723 405.984C110.179 405.72 110.545 405.336 110.821 404.832C111.109 404.316 111.253 403.716 111.253 403.032ZM125 398.082V408H122.948V406.83C122.624 407.238 122.198 407.562 121.67 407.802C121.154 408.03 120.602 408.144 120.014 408.144C119.234 408.144 118.532 407.982 117.908 407.658C117.296 407.334 116.81 406.854 116.45 406.218C116.102 405.582 115.928 404.814 115.928 403.914V398.082H117.962V403.608C117.962 404.496 118.184 405.18 118.628 405.66C119.072 406.128 119.678 406.362 120.446 406.362C121.214 406.362 121.82 406.128 122.264 405.66C122.72 405.18 122.948 404.496 122.948 403.608V398.082H125ZM128.751 396.768C128.379 396.768 128.067 396.642 127.815 396.39C127.563 396.138 127.437 395.826 127.437 395.454C127.437 395.082 127.563 394.77 127.815 394.518C128.067 394.266 128.379 394.14 128.751 394.14C129.111 394.14 129.417 394.266 129.669 394.518C129.921 394.77 130.047 395.082 130.047 395.454C130.047 395.826 129.921 396.138 129.669 396.39C129.417 396.642 129.111 396.768 128.751 396.768ZM129.759 398.082V408H127.707V398.082H129.759ZM137.458 397.92C138.238 397.92 138.934 398.082 139.546 398.406C140.17 398.73 140.656 399.21 141.004 399.846C141.352 400.482 141.526 401.25 141.526 402.15V408H139.492V402.456C139.492 401.568 139.27 400.89 138.826 400.422C138.382 399.942 137.776 399.702 137.008 399.702C136.24 399.702 135.628 399.942 135.172 400.422C134.728 400.89 134.506 401.568 134.506 402.456V408H132.454V398.082H134.506V399.216C134.842 398.808 135.268 398.49 135.784 398.262C136.312 398.034 136.87 397.92 137.458 397.92ZM143.459 402.996C143.459 402 143.663 401.118 144.071 400.35C144.491 399.582 145.055 398.988 145.763 398.568C146.483 398.136 147.275 397.92 148.139 397.92C148.919 397.92 149.597 398.076 150.173 398.388C150.761 398.688 151.229 399.066 151.577 399.522V398.082H153.647V408H151.577V406.524C151.229 406.992 150.755 407.382 150.155 407.694C149.555 408.006 148.871 408.162 148.103 408.162C147.251 408.162 146.471 407.946 145.763 407.514C145.055 407.07 144.491 406.458 144.071 405.678C143.663 404.886 143.459 403.992 143.459 402.996ZM151.577 403.032C151.577 402.348 151.433 401.754 151.145 401.25C150.869 400.746 150.503 400.362 150.047 400.098C149.591 399.834 149.099 399.702 148.571 399.702C148.043 399.702 147.551 399.834 147.095 400.098C146.639 400.35 146.267 400.728 145.979 401.232C145.703 401.724 145.565 402.312 145.565 402.996C145.565 403.68 145.703 404.28 145.979 404.796C146.267 405.312 146.639 405.708 147.095 405.984C147.563 406.248 148.055 406.38 148.571 406.38C149.099 406.38 149.591 406.248 150.047 405.984C150.503 405.72 150.869 405.336 151.145 404.832C151.433 404.316 151.577 403.716 151.577 403.032ZM162.062 396.768C161.69 396.768 161.378 396.642 161.126 396.39C160.874 396.138 160.748 395.826 160.748 395.454C160.748 395.082 160.874 394.77 161.126 394.518C161.378 394.266 161.69 394.14 162.062 394.14C162.422 394.14 162.728 394.266 162.98 394.518C163.232 394.77 163.358 395.082 163.358 395.454C163.358 395.826 163.232 396.138 162.98 396.39C162.728 396.642 162.422 396.768 162.062 396.768ZM163.07 398.082V408H161.018V398.082H163.07ZM170.768 397.92C171.548 397.92 172.244 398.082 172.856 398.406C173.48 398.73 173.966 399.21 174.314 399.846C174.662 400.482 174.836 401.25 174.836 402.15V408H172.802V402.456C172.802 401.568 172.58 400.89 172.136 400.422C171.692 399.942 171.086 399.702 170.318 399.702C169.55 399.702 168.938 399.942 168.482 400.422C168.038 400.89 167.816 401.568 167.816 402.456V408H165.764V398.082H167.816V399.216C168.152 398.808 168.578 398.49 169.094 398.262C169.622 398.034 170.18 397.92 170.768 397.92ZM181.612 399.756H179.776V408H177.706V399.756H176.536V398.082H177.706V397.38C177.706 396.24 178.006 395.412 178.606 394.896C179.218 394.368 180.172 394.104 181.468 394.104V395.814C180.844 395.814 180.406 395.934 180.154 396.174C179.902 396.402 179.776 396.804 179.776 397.38V398.082H181.612V399.756ZM192.52 402.798C192.52 403.17 192.496 403.506 192.448 403.806H184.87C184.93 404.598 185.224 405.234 185.752 405.714C186.28 406.194 186.928 406.434 187.696 406.434C188.8 406.434 189.58 405.972 190.036 405.048H192.25C191.95 405.96 191.404 406.71 190.612 407.298C189.832 407.874 188.86 408.162 187.696 408.162C186.748 408.162 185.896 407.952 185.14 407.532C184.396 407.1 183.808 406.5 183.376 405.732C182.956 404.952 182.746 404.052 182.746 403.032C182.746 402.012 182.95 401.118 183.358 400.35C183.778 399.57 184.36 398.97 185.104 398.55C185.86 398.13 186.724 397.92 187.696 397.92C188.632 397.92 189.466 398.124 190.198 398.532C190.93 398.94 191.5 399.516 191.908 400.26C192.316 400.992 192.52 401.838 192.52 402.798ZM190.378 402.15C190.366 401.394 190.096 400.788 189.568 400.332C189.04 399.876 188.386 399.648 187.606 399.648C186.898 399.648 186.292 399.876 185.788 400.332C185.284 400.776 184.984 401.382 184.888 402.15H190.378ZM196.591 399.522C196.891 399.018 197.287 398.628 197.779 398.352C198.283 398.064 198.877 397.92 199.561 397.92V400.044H199.039C198.235 400.044 197.623 400.248 197.203 400.656C196.795 401.064 196.591 401.772 196.591 402.78V408H194.539V398.082H196.591V399.522ZM202.492 396.768C202.12 396.768 201.808 396.642 201.556 396.39C201.304 396.138 201.178 395.826 201.178 395.454C201.178 395.082 201.304 394.77 201.556 394.518C201.808 394.266 202.12 394.14 202.492 394.14C202.852 394.14 203.158 394.266 203.41 394.518C203.662 394.77 203.788 395.082 203.788 395.454C203.788 395.826 203.662 396.138 203.41 396.39C203.158 396.642 202.852 396.768 202.492 396.768ZM203.5 398.082V408H201.448V398.082H203.5ZM210.496 408.162C209.56 408.162 208.714 407.952 207.958 407.532C207.202 407.1 206.608 406.5 206.176 405.732C205.744 404.952 205.528 404.052 205.528 403.032C205.528 402.024 205.75 401.13 206.194 400.35C206.638 399.57 207.244 398.97 208.012 398.55C208.78 398.13 209.638 397.92 210.586 397.92C211.534 397.92 212.392 398.13 213.16 398.55C213.928 398.97 214.534 399.57 214.978 400.35C215.422 401.13 215.644 402.024 215.644 403.032C215.644 404.04 215.416 404.934 214.96 405.714C214.504 406.494 213.88 407.1 213.088 407.532C212.308 407.952 211.444 408.162 210.496 408.162ZM210.496 406.38C211.024 406.38 211.516 406.254 211.972 406.002C212.44 405.75 212.818 405.372 213.106 404.868C213.394 404.364 213.538 403.752 213.538 403.032C213.538 402.312 213.4 401.706 213.124 401.214C212.848 400.71 212.482 400.332 212.026 400.08C211.57 399.828 211.078 399.702 210.55 399.702C210.022 399.702 209.53 399.828 209.074 400.08C208.63 400.332 208.276 400.71 208.012 401.214C207.748 401.706 207.616 402.312 207.616 403.032C207.616 404.1 207.886 404.928 208.426 405.516C208.978 406.092 209.668 406.38 210.496 406.38ZM219.724 399.522C220.024 399.018 220.42 398.628 220.912 398.352C221.416 398.064 222.01 397.92 222.694 397.92V400.044H222.172C221.368 400.044 220.756 400.248 220.336 400.656C219.928 401.064 219.724 401.772 219.724 402.78V408H217.672V398.082H219.724V399.522ZM228.572 402.996C228.572 402 228.776 401.118 229.184 400.35C229.604 399.582 230.168 398.988 230.876 398.568C231.596 398.136 232.394 397.92 233.27 397.92C233.918 397.92 234.554 398.064 235.178 398.352C235.814 398.628 236.318 399 236.69 399.468V394.68H238.76V408H236.69V406.506C236.354 406.986 235.886 407.382 235.286 407.694C234.698 408.006 234.02 408.162 233.252 408.162C232.388 408.162 231.596 407.946 230.876 407.514C230.168 407.07 229.604 406.458 229.184 405.678C228.776 404.886 228.572 403.992 228.572 402.996ZM236.69 403.032C236.69 402.348 236.546 401.754 236.258 401.25C235.982 400.746 235.616 400.362 235.16 400.098C234.704 399.834 234.212 399.702 233.684 399.702C233.156 399.702 232.664 399.834 232.208 400.098C231.752 400.35 231.38 400.728 231.092 401.232C230.816 401.724 230.678 402.312 230.678 402.996C230.678 403.68 230.816 404.28 231.092 404.796C231.38 405.312 231.752 405.708 232.208 405.984C232.676 406.248 233.168 406.38 233.684 406.38C234.212 406.38 234.704 406.248 235.16 405.984C235.616 405.72 235.982 405.336 236.258 404.832C236.546 404.316 236.69 403.716 236.69 403.032ZM250.545 402.798C250.545 403.17 250.521 403.506 250.473 403.806H242.895C242.955 404.598 243.249 405.234 243.777 405.714C244.305 406.194 244.953 406.434 245.721 406.434C246.825 406.434 247.605 405.972 248.061 405.048H250.275C249.975 405.96 249.429 406.71 248.637 407.298C247.857 407.874 246.885 408.162 245.721 408.162C244.773 408.162 243.921 407.952 243.165 407.532C242.421 407.1 241.833 406.5 241.401 405.732C240.981 404.952 240.771 404.052 240.771 403.032C240.771 402.012 240.975 401.118 241.383 400.35C241.803 399.57 242.385 398.97 243.129 398.55C243.885 398.13 244.749 397.92 245.721 397.92C246.657 397.92 247.491 398.124 248.223 398.532C248.955 398.94 249.525 399.516 249.933 400.26C250.341 400.992 250.545 401.838 250.545 402.798ZM248.403 402.15C248.391 401.394 248.121 400.788 247.593 400.332C247.065 399.876 246.411 399.648 245.631 399.648C244.923 399.648 244.317 399.876 243.813 400.332C243.309 400.776 243.009 401.382 242.913 402.15H248.403ZM254.617 399.522C254.917 399.018 255.313 398.628 255.805 398.352C256.309 398.064 256.903 397.92 257.587 397.92V400.044H257.065C256.261 400.044 255.649 400.248 255.229 400.656C254.821 401.064 254.617 401.772 254.617 402.78V408H252.565V398.082H254.617V399.522ZM268.563 402.798C268.563 403.17 268.539 403.506 268.491 403.806H260.913C260.973 404.598 261.267 405.234 261.795 405.714C262.323 406.194 262.971 406.434 263.739 406.434C264.843 406.434 265.623 405.972 266.079 405.048H268.293C267.993 405.96 267.447 406.71 266.655 407.298C265.875 407.874 264.903 408.162 263.739 408.162C262.791 408.162 261.939 407.952 261.183 407.532C260.439 407.1 259.851 406.5 259.419 405.732C258.999 404.952 258.789 404.052 258.789 403.032C258.789 402.012 258.993 401.118 259.401 400.35C259.821 399.57 260.403 398.97 261.147 398.55C261.903 398.13 262.767 397.92 263.739 397.92C264.675 397.92 265.509 398.124 266.241 398.532C266.973 398.94 267.543 399.516 267.951 400.26C268.359 400.992 268.563 401.838 268.563 402.798ZM266.421 402.15C266.409 401.394 266.139 400.788 265.611 400.332C265.083 399.876 264.429 399.648 263.649 399.648C262.941 399.648 262.335 399.876 261.831 400.332C261.327 400.776 261.027 401.382 260.931 402.15H266.421ZM269.898 403.032C269.898 402.012 270.102 401.118 270.51 400.35C270.93 399.57 271.506 398.97 272.238 398.55C272.97 398.13 273.81 397.92 274.758 397.92C275.958 397.92 276.948 398.208 277.728 398.784C278.52 399.348 279.054 400.158 279.33 401.214H277.116C276.936 400.722 276.648 400.338 276.252 400.062C275.856 399.786 275.358 399.648 274.758 399.648C273.918 399.648 273.246 399.948 272.742 400.548C272.25 401.136 272.004 401.964 272.004 403.032C272.004 404.1 272.25 404.934 272.742 405.534C273.246 406.134 273.918 406.434 274.758 406.434C275.946 406.434 276.732 405.912 277.116 404.868H279.33C279.042 405.876 278.502 406.68 277.71 407.28C276.918 407.868 275.934 408.162 274.758 408.162C273.81 408.162 272.97 407.952 272.238 407.532C271.506 407.1 270.93 406.5 270.51 405.732C270.102 404.952 269.898 404.052 269.898 403.032ZM286.505 397.92C287.261 397.92 287.933 398.082 288.521 398.406C289.121 398.73 289.589 399.21 289.925 399.846C290.273 400.482 290.447 401.25 290.447 402.15V408H288.413V402.456C288.413 401.568 288.191 400.89 287.747 400.422C287.303 399.942 286.697 399.702 285.929 399.702C285.161 399.702 284.549 399.942 284.093 400.422C283.649 400.89 283.427 401.568 283.427 402.456V408H281.375V394.68H283.427V399.234C283.775 398.814 284.213 398.49 284.741 398.262C285.281 398.034 285.869 397.92 286.505 397.92ZM292.381 402.996C292.381 402 292.585 401.118 292.993 400.35C293.413 399.582 293.977 398.988 294.685 398.568C295.405 398.136 296.197 397.92 297.061 397.92C297.841 397.92 298.519 398.076 299.095 398.388C299.683 398.688 300.151 399.066 300.499 399.522V398.082H302.569V408H300.499V406.524C300.151 406.992 299.677 407.382 299.077 407.694C298.477 408.006 297.793 408.162 297.025 408.162C296.173 408.162 295.393 407.946 294.685 407.514C293.977 407.07 293.413 406.458 292.993 405.678C292.585 404.886 292.381 403.992 292.381 402.996ZM300.499 403.032C300.499 402.348 300.355 401.754 300.067 401.25C299.791 400.746 299.425 400.362 298.969 400.098C298.513 399.834 298.021 399.702 297.493 399.702C296.965 399.702 296.473 399.834 296.017 400.098C295.561 400.35 295.189 400.728 294.901 401.232C294.625 401.724 294.487 402.312 294.487 402.996C294.487 403.68 294.625 404.28 294.901 404.796C295.189 405.312 295.561 405.708 296.017 405.984C296.485 406.248 296.977 406.38 297.493 406.38C298.021 406.38 298.513 406.248 298.969 405.984C299.425 405.72 299.791 405.336 300.067 404.832C300.355 404.316 300.499 403.716 300.499 403.032ZM306.092 408.126C305.72 408.126 305.408 408 305.156 407.748C304.904 407.496 304.778 407.184 304.778 406.812C304.778 406.44 304.904 406.128 305.156 405.876C305.408 405.624 305.72 405.498 306.092 405.498C306.452 405.498 306.758 405.624 307.01 405.876C307.262 406.128 307.388 406.44 307.388 406.812C307.388 407.184 307.262 407.496 307.01 407.748C306.758 408 306.452 408.126 306.092 408.126Z" fill="#C45185"/>
<g filter="url(#filter1_d_110_10798)">
<rect x="61" y="434" width="268" height="56.5312" rx="15" fill="#FFF2F7"/>
<rect x="62" y="435" width="266" height="54.5312" rx="14" stroke="#AA396C" stroke-width="2"/>
</g>
<path d="M164.126 466.16H158.306L157.306 469H154.926L159.906 455.08H162.546L167.526 469H165.126L164.126 466.16ZM163.486 464.3L161.226 457.84L158.946 464.3H163.486ZM168.931 463.48C168.931 462.347 169.158 461.353 169.611 460.5C170.078 459.633 170.718 458.967 171.531 458.5C172.345 458.033 173.278 457.8 174.331 457.8C175.665 457.8 176.765 458.12 177.631 458.76C178.511 459.387 179.105 460.287 179.411 461.46H176.951C176.751 460.913 176.431 460.487 175.991 460.18C175.551 459.873 174.998 459.72 174.331 459.72C173.398 459.72 172.651 460.053 172.091 460.72C171.545 461.373 171.271 462.293 171.271 463.48C171.271 464.667 171.545 465.593 172.091 466.26C172.651 466.927 173.398 467.26 174.331 467.26C175.651 467.26 176.525 466.68 176.951 465.52H179.411C179.091 466.64 178.491 467.533 177.611 468.2C176.731 468.853 175.638 469.18 174.331 469.18C173.278 469.18 172.345 468.947 171.531 468.48C170.718 468 170.078 467.333 169.611 466.48C169.158 465.613 168.931 464.613 168.931 463.48ZM191.784 463.22C191.784 463.633 191.757 464.007 191.704 464.34H183.284C183.35 465.22 183.677 465.927 184.264 466.46C184.85 466.993 185.57 467.26 186.424 467.26C187.65 467.26 188.517 466.747 189.024 465.72H191.484C191.15 466.733 190.544 467.567 189.664 468.22C188.797 468.86 187.717 469.18 186.424 469.18C185.37 469.18 184.424 468.947 183.584 468.48C182.757 468 182.104 467.333 181.624 466.48C181.157 465.613 180.924 464.613 180.924 463.48C180.924 462.347 181.15 461.353 181.604 460.5C182.07 459.633 182.717 458.967 183.544 458.5C184.384 458.033 185.344 457.8 186.424 457.8C187.464 457.8 188.39 458.027 189.204 458.48C190.017 458.933 190.65 459.573 191.104 460.4C191.557 461.213 191.784 462.153 191.784 463.22ZM189.404 462.5C189.39 461.66 189.09 460.987 188.504 460.48C187.917 459.973 187.19 459.72 186.324 459.72C185.537 459.72 184.864 459.973 184.304 460.48C183.744 460.973 183.41 461.647 183.304 462.5H189.404ZM196.307 459.6C196.694 459.093 197.221 458.667 197.887 458.32C198.554 457.973 199.307 457.8 200.147 457.8C201.107 457.8 201.981 458.04 202.767 458.52C203.567 458.987 204.194 459.647 204.647 460.5C205.101 461.353 205.327 462.333 205.327 463.44C205.327 464.547 205.101 465.54 204.647 466.42C204.194 467.287 203.567 467.967 202.767 468.46C201.981 468.94 201.107 469.18 200.147 469.18C199.307 469.18 198.561 469.013 197.907 468.68C197.254 468.333 196.721 467.907 196.307 467.4V474.24H194.027V457.98H196.307V459.6ZM203.007 463.44C203.007 462.68 202.847 462.027 202.527 461.48C202.221 460.92 201.807 460.5 201.287 460.22C200.781 459.927 200.234 459.78 199.647 459.78C199.074 459.78 198.527 459.927 198.007 460.22C197.501 460.513 197.087 460.94 196.767 461.5C196.461 462.06 196.307 462.72 196.307 463.48C196.307 464.24 196.461 464.907 196.767 465.48C197.087 466.04 197.501 466.467 198.007 466.76C198.527 467.053 199.074 467.2 199.647 467.2C200.234 467.2 200.781 467.053 201.287 466.76C201.807 466.453 202.221 466.013 202.527 465.44C202.847 464.867 203.007 464.2 203.007 463.44ZM210.242 459.84V465.94C210.242 466.353 210.335 466.653 210.522 466.84C210.722 467.013 211.055 467.1 211.522 467.1H212.922V469H211.122C210.095 469 209.309 468.76 208.762 468.28C208.215 467.8 207.942 467.02 207.942 465.94V459.84H206.642V457.98H207.942V455.24H210.242V457.98H212.922V459.84H210.242ZM214.263 463.44C214.263 462.333 214.49 461.353 214.943 460.5C215.41 459.647 216.037 458.987 216.823 458.52C217.623 458.04 218.503 457.8 219.463 457.8C220.33 457.8 221.083 457.973 221.723 458.32C222.377 458.653 222.897 459.073 223.283 459.58V457.98H225.583V469H223.283V467.36C222.897 467.88 222.37 468.313 221.703 468.66C221.037 469.007 220.277 469.18 219.423 469.18C218.477 469.18 217.61 468.94 216.823 468.46C216.037 467.967 215.41 467.287 214.943 466.42C214.49 465.54 214.263 464.547 214.263 463.44ZM223.283 463.48C223.283 462.72 223.123 462.06 222.803 461.5C222.497 460.94 222.09 460.513 221.583 460.22C221.077 459.927 220.53 459.78 219.943 459.78C219.357 459.78 218.81 459.927 218.303 460.22C217.797 460.5 217.383 460.92 217.063 461.48C216.757 462.027 216.603 462.68 216.603 463.44C216.603 464.2 216.757 464.867 217.063 465.44C217.383 466.013 217.797 466.453 218.303 466.76C218.823 467.053 219.37 467.2 219.943 467.2C220.53 467.2 221.077 467.053 221.583 466.76C222.09 466.467 222.497 466.04 222.803 465.48C223.123 464.907 223.283 464.24 223.283 463.48ZM230.858 459.58C231.191 459.02 231.631 458.587 232.178 458.28C232.738 457.96 233.398 457.8 234.158 457.8V460.16H233.578C232.685 460.16 232.005 460.387 231.538 460.84C231.085 461.293 230.858 462.08 230.858 463.2V469H228.578V457.98H230.858V459.58Z" fill="#AA396C"/>
</g>
<defs>
<filter id="filter0_d_110_10798" x="29.3" y="317.3" width="340.4" height="217.4" filterUnits="userSpaceOnUse" color-interpolation-filters="sRGB">
<feFlood flood-opacity="0" result="BackgroundImageFix"/>
<feColorMatrix in="SourceAlpha" type="matrix" values="0 0 0 0 0 0 0 0 0 0 0 0 0 0 0 0 0 0 127 0" result="hardAlpha"/>
<feOffset dx="5" dy="4"/>
<feGaussianBlur stdDeviation="2.85"/>
<feComposite in2="hardAlpha" operator="out"/>
<feColorMatrix type="matrix" values="0 0 0 0 0 0 0 0 0 0 0 0 0 0 0 0 0 0 0.25 0"/>
<feBlend mode="normal" in2="BackgroundImageFix" result="effect1_dropShadow_110_10798"/>
<feBlend mode="normal" in="SourceGraphic" in2="effect1_dropShadow_110_10798" result="shape"/>
</filter>
<filter id="filter1_d_110_10798" x="57" y="434" width="276" height="64.5312" filterUnits="userSpaceOnUse" color-interpolation-filters="sRGB">
<feFlood flood-opacity="0" result="BackgroundImageFix"/>
<feColorMatrix in="SourceAlpha" type="matrix" values="0 0 0 0 0 0 0 0 0 0 0 0 0 0 0 0 0 0 127 0" result="hardAlpha"/>
<feOffset dy="4"/>
<feGaussianBlur stdDeviation="2"/>
<feComposite in2="hardAlpha" operator="out"/>
<feColorMatrix type="matrix" values="0 0 0 0 0 0 0 0 0 0 0 0 0 0 0 0 0 0 0.25 0"/>
<feBlend mode="normal" in2="BackgroundImageFix" result="effect1_dropShadow_110_10798"/>
<feBlend mode="normal" in="SourceGraphic" in2="effect1_dropShadow_110_10798" result="shape"/>
</filter>
</defs>
</svg>
